<?xml version="1.0" encoding="utf-8"?>
<!-- Generator: Adobe Illustrator 16.0.0, SVG Export Plug-In . SVG Version: 6.00 Build 0)  -->
<!DOCTYPE svg PUBLIC "-//W3C//DTD SVG 1.1//EN" "http://www.w3.org/Graphics/SVG/1.1/DTD/svg11.dtd">
<svg version="1.1" xmlns="http://www.w3.org/2000/svg" xmlns:xlink="http://www.w3.org/1999/xlink" x="0px" y="0px"
	 width="89.668px" height="89.67px" viewBox="0 0 89.668 89.67" enable-background="new 0 0 89.668 89.67" xml:space="preserve">
<g id="圖層_1">
	<g>
		<path fill="#0E75AF" stroke="#FFFFFF" stroke-width="3" stroke-miterlimit="10" d="M88.168,78.17c0,5.522-4.477,10-10,10H11.5
			c-5.523,0-10-4.478-10-10V11.5c0-5.522,4.477-10,10-10h66.668c5.523,0,10,4.478,10,10V78.17z"/>
		<g>
			<path fill="#FFFFFF" d="M19.475,12.994h7.762c0.559,0.181,0.838,0.659,0.838,1.434c0,0.919-0.324,1.379-0.975,1.379h-7.49
				c-0.631,0-0.955-0.504-0.973-1.514C18.637,13.607,18.916,13.174,19.475,12.994z M20.016,9.532h6.707
				c0.541,0.181,0.811,0.64,0.811,1.379c0,0.883-0.316,1.325-0.947,1.325H20.15c-0.596,0-0.91-0.487-0.947-1.46
				C19.203,10.127,19.475,9.713,20.016,9.532z M25.803,34.168h-4.922c-1.027-0.018-1.578-0.55-1.65-1.596V26.19
				c0-1.009,0.541-1.55,1.623-1.623h5.111c1.045,0.126,1.568,0.73,1.568,1.812v6.058C27.533,33.591,26.955,34.168,25.803,34.168z
				 M20.07,16.834h6.732c0.541,0.162,0.813,0.604,0.813,1.325c0,0.902-0.326,1.353-0.975,1.353h-6.436
				c-0.578,0-0.893-0.478-0.947-1.434C19.258,17.411,19.529,16.996,20.07,16.834z M20.07,20.593h6.652
				c0.541,0.162,0.811,0.613,0.811,1.352c0,0.902-0.316,1.352-0.947,1.352h-6.381c-0.578,0-0.893-0.487-0.947-1.46
				C19.258,21.17,19.529,20.755,20.07,20.593z M22.477,27.245c-0.254,0-0.416,0.171-0.486,0.514v3.245
				c0.035,0.342,0.26,0.514,0.676,0.514h1.459c0.434-0.037,0.65-0.235,0.65-0.595v-3.11c0-0.378-0.209-0.568-0.623-0.568H22.477z
				 M41.947,21.512c0.811,0.054,1.225,0.406,1.244,1.055l-0.027,7.842c0,0.685-0.479,1.027-1.434,1.027h-1
				c0.828,0.271,1.686,0.55,2.568,0.838c0.414,0.18,0.621,0.46,0.621,0.838c0,0.469-0.107,0.838-0.324,1.109
				c-0.125,0.234-0.314,0.369-0.566,0.406c-0.182,0-0.389-0.037-0.623-0.108c-1.01-0.361-2.605-0.875-4.787-1.542
				c-0.234-0.162-0.352-0.396-0.352-0.703c0.02-0.307,0.082-0.586,0.189-0.838h-2.865c0.107,0.271,0.162,0.577,0.162,0.919
				c0,0.163-0.072,0.325-0.217,0.487c-0.127,0.198-0.352,0.333-0.676,0.406c-0.83,0.504-2.336,0.893-4.516,1.163
				c-0.307,0-0.533-0.036-0.678-0.108c-0.414-0.108-0.621-0.559-0.621-1.352c0-0.361,0.152-0.649,0.459-0.865
				c1.533-0.163,2.768-0.379,3.705-0.649h-1.73c-0.902,0-1.379-0.352-1.434-1.055v-7.977c0.037-0.487,0.424-0.785,1.164-0.893
				H41.947z M28.695,10.208h6.086V9.857c0-0.541,0.414-0.865,1.244-0.974c0.936,0.018,1.404,0.361,1.404,1.028v0.297h6.166
				c0.379,0.054,0.568,0.424,0.568,1.109c0,0.739-0.217,1.108-0.648,1.108H37.43v0.649h5.383c0.359,0.072,0.541,0.415,0.541,1.028
				c0,0.686-0.199,1.028-0.596,1.028H29.75c-0.469,0-0.703-0.37-0.703-1.109c0-0.504,0.172-0.82,0.514-0.947h5.221v-0.649h-5.924
				c-0.486,0-0.729-0.405-0.729-1.217C28.129,10.65,28.316,10.316,28.695,10.208z M41.947,21.052H29.994
				c-1.027-0.162-1.541-0.703-1.541-1.623v-2.542c0.143-0.757,0.631-1.171,1.459-1.244h12.035c1.172,0.108,1.758,0.622,1.758,1.542
				v2.19C43.705,20.44,43.119,20.999,41.947,21.052z M31.266,17.726c-0.127,0-0.244,0.081-0.352,0.244v0.649
				c0.035,0.18,0.152,0.297,0.352,0.352h1.459v-1.244H31.266z M31.725,23.594C31.508,23.667,31.4,23.802,31.4,24v0.352h9.303v-0.325
				c0-0.252-0.127-0.396-0.379-0.433H31.725z M40.703,26.083H31.4v0.838h9.303V26.083z M40.703,28.678H31.4v0.325
				c0.018,0.307,0.145,0.469,0.379,0.487h8.518c0.252-0.036,0.389-0.198,0.406-0.487V28.678z M35.133,17.726v1.244h1.783v-1.244
				H35.133z M39.297,17.726v1.244h1.486c0.326,0,0.488-0.099,0.488-0.297v-0.676c-0.072-0.18-0.227-0.271-0.461-0.271H39.297z"/>
			<path fill="#FFFFFF" d="M49.682,11.236h6.463V9.749c0-0.649,0.486-0.973,1.459-0.973c0.938,0,1.406,0.342,1.406,1.027v1.433
				h5.221c0.449,0.126,0.711,0.442,0.783,0.947c0.631-0.649,1.227-1.298,1.785-1.947c0.342-0.234,0.639-0.352,0.893-0.352
				c0.721,0.289,1.127,0.812,1.217,1.568c0,0.487-0.316,0.992-0.947,1.515c-0.883,1.064-1.82,2.082-2.813,3.056h6.193
				c0.469,0.09,0.703,0.559,0.703,1.406c0,0.919-0.262,1.379-0.785,1.379h-5.732c2.037,0.938,3.705,1.74,5.004,2.407
				c0.486,0.361,0.738,0.73,0.756,1.108c0,1.046-0.387,1.623-1.162,1.731c-0.344,0-0.596-0.054-0.758-0.162
				c-0.197-0.108-0.404-0.207-0.621-0.298v9.276c-0.037,0.865-0.469,1.298-1.299,1.298H53.385c-0.973,0-1.486-0.397-1.541-1.19
				v-7.626c-0.793,0.415-1.586,0.803-2.379,1.163c-0.559,0.289-1.145,0.478-1.758,0.568c-0.848-0.09-1.271-0.613-1.271-1.568
				c0-0.487,0.234-0.91,0.703-1.271c3.623-1.623,6.924-3.435,9.898-5.436h-9.52c-0.613,0-0.92-0.496-0.92-1.487
				c0-0.721,0.244-1.154,0.73-1.298h8.844v-2.028h-6.328c-0.633,0-0.965-0.486-1.002-1.46
				C48.842,11.831,49.121,11.398,49.682,11.236z M55.197,24.568c-0.379,0.108-0.568,0.289-0.568,0.541v1.433h11.305v-1.433
				c0-0.307-0.127-0.487-0.379-0.541H55.197z M65.934,29.328H54.629v1.704c0,0.342,0.172,0.514,0.514,0.514h10.223
				c0.379,0,0.568-0.208,0.568-0.622V29.328z M57.793,21.918h7.545c-0.432-0.198-0.875-0.396-1.324-0.595
				c-0.434-0.18-0.686-0.478-0.758-0.892c0.072-0.739,0.289-1.28,0.648-1.623h-1.865C60.705,19.908,59.289,20.944,57.793,21.918z
				 M60.795,16.022c0.83-0.667,1.605-1.343,2.326-2.028h-4.084v2.028H60.795z"/>
			<path fill="#FFFFFF" d="M19.258,46.467h7.031c0.127,0.036,0.234,0.09,0.324,0.162c-0.09-0.252-0.135-0.532-0.135-0.838
				c0-0.649,0.244-1.055,0.73-1.217h3.299c0.504,0.162,0.758,0.595,0.758,1.298c0,0.866-0.299,1.298-0.893,1.298h-3.002
				c-0.18,0-0.324-0.045-0.434-0.135c0.09,0.199,0.137,0.451,0.137,0.757c0,0.901-0.316,1.352-0.947,1.352h-6.68
				c-0.613,0-0.928-0.478-0.945-1.434C18.502,47.044,18.754,46.629,19.258,46.467z M19.906,49.955h5.68
				c0.523,0.145,0.785,0.568,0.785,1.271c0,0.865-0.307,1.298-0.92,1.298h-5.408c-0.578,0-0.885-0.459-0.92-1.379
				C19.123,50.496,19.385,50.1,19.906,49.955z M24.91,67.29h-4.273c-0.9-0.019-1.379-0.568-1.434-1.65v-6.49
				c0-1.045,0.461-1.604,1.381-1.676h4.461c0.902,0.09,1.352,0.721,1.352,1.893v6.139C26.396,66.694,25.9,67.29,24.91,67.29z
				 M20.07,53.525h5.57c0.541,0.162,0.811,0.604,0.811,1.325c0,0.902-0.324,1.353-0.973,1.353h-5.273
				c-0.578,0-0.893-0.478-0.947-1.434C19.258,54.102,19.529,53.687,20.07,53.525z M20.07,42.816h5.271
				c0.506,0.181,0.758,0.631,0.758,1.352c0,0.865-0.307,1.298-0.92,1.298h-4.947c-0.578,0-0.893-0.478-0.947-1.434
				C19.285,43.402,19.547,42.997,20.07,42.816z M22.26,60.204c-0.342,0-0.568,0.189-0.676,0.568v3.218
				c0.035,0.36,0.244,0.541,0.621,0.541h1.244c0.396-0.018,0.596-0.216,0.596-0.595v-3.083c0-0.433-0.189-0.649-0.568-0.649H22.26z
				 M34.537,47.007c-0.451,1.01-1.037,1.884-1.758,2.624c-0.234,0.234-0.469,0.352-0.703,0.352c-0.217,0-0.396-0.027-0.541-0.082
				c0.072,0.181,0.117,0.397,0.135,0.649c0,0.595-0.107,0.964-0.324,1.108c0,0.199-0.541,0.496-1.623,0.893
				c-0.703,0.307-1.414,0.523-2.135,0.649c-0.65,0-1.002-0.441-1.055-1.325c0-0.612,0.162-1.063,0.486-1.352
				c1.135-0.216,2.344-0.613,3.623-1.19c0.072,0,0.127,0.009,0.162,0.027c-0.107-0.198-0.189-0.415-0.242-0.649
				c0-0.252,0.117-0.532,0.352-0.838c0.973-1.298,1.641-3.056,2-5.273c0.199-0.36,0.496-0.577,0.893-0.649
				c0.396,0,0.73,0.072,1,0.216c0.396,0.18,0.596,0.523,0.596,1.027c-0.037,0.469-0.09,0.911-0.162,1.325h7.086
				c1.027,0,1.541,0.514,1.541,1.542c-0.396,1.785-1.209,3.498-2.434,5.138c-0.162,0.289-0.479,0.433-0.947,0.433
				s-0.875-0.234-1.217-0.703c-0.162-0.162-0.244-0.415-0.244-0.757c0.109-0.252,0.695-1.19,1.758-2.813
				c0-0.234-0.162-0.352-0.486-0.352h-2.703v2.137c0.197,1.767,1.063,3.417,2.596,4.949c1.063,0.811,2.162,1.325,3.299,1.542
				c0.469,0,0.775,0.342,0.92,1.027c0,1.19-0.262,1.848-0.785,1.974c-0.486-0.072-0.938-0.117-1.352-0.135h-0.027
				c0.072,0.253,0.107,0.523,0.107,0.812v6.057c0,1.28-0.604,1.92-1.811,1.92H30.156c-1.117-0.019-1.703-0.613-1.758-1.785v-6.463
				c0-0.271,0.035-0.496,0.107-0.676c-0.125,0.037-0.234,0.063-0.324,0.081c-0.359,0-0.686-0.063-0.973-0.189
				c-0.289-0.234-0.479-0.847-0.568-1.839c0.09-0.289,0.297-0.532,0.623-0.73c2.648-0.721,4.533-1.694,5.65-2.92
				c1.209-1.118,1.857-2.407,1.947-3.867l-0.027-1.893H34.537z M31.887,60.204c-0.289,0-0.479,0.199-0.568,0.595v2.975
				c0.037,0.378,0.289,0.568,0.758,0.568h6.68c0.451-0.037,0.676-0.262,0.676-0.676V60.88c0-0.451-0.225-0.676-0.676-0.676H31.887z
				 M39.377,57.311c-0.377-0.234-0.738-0.496-1.08-0.784c-0.885-0.649-1.705-1.73-2.461-3.245c-0.451,0.721-1.217,1.587-2.299,2.596
				c-0.631,0.559-1.326,1.037-2.082,1.433H39.377z"/>
			<path fill="#FFFFFF" d="M46.869,46.304h8.814c0.541,0.181,0.813,0.631,0.813,1.353c0,0.901-0.324,1.352-0.975,1.352h-8.49
				c-0.596,0-0.91-0.478-0.947-1.434C46.084,46.909,46.346,46.485,46.869,46.304z M48.627,57.392h5.598
				c1.063,0.019,1.641,0.559,1.73,1.623v6.409c0,1.298-0.568,1.956-1.703,1.974h-5.68c-1.119-0.036-1.686-0.649-1.703-1.839v-6.463
				C46.887,57.959,47.473,57.392,48.627,57.392z M47.814,49.82h7.166c0.451,0.145,0.703,0.451,0.758,0.919
				c1.262-2.253,2.234-4.921,2.92-8.004c0.145-0.469,0.514-0.703,1.109-0.703c0.434,0.018,0.748,0.099,0.947,0.243
				c0.305,0.199,0.469,0.46,0.486,0.785c-0.037,0.324-0.072,0.631-0.109,0.919h8.844c1.117,0.036,1.695,0.514,1.73,1.433
				c0,6.13-0.152,10.907-0.459,14.333c-0.289,3.75-0.695,5.841-1.217,6.274c-0.344,0.937-1.164,1.424-2.461,1.46
				c-0.813,0-1.75-0.099-2.813-0.297c-0.902-0.162-1.389-0.307-1.461-0.433c-0.252-0.325-0.379-0.793-0.379-1.406
				c0.252-0.83,0.686-1.244,1.299-1.244c0.307,0.054,0.783,0.144,1.434,0.271c0.756,0.162,1.262,0.244,1.514,0.244
				c0.342,0,0.596-0.298,0.758-0.893c0.594-0.595,0.928-6.012,1-16.252c-0.037-0.415-0.27-0.658-0.703-0.73h-7.41
				c-0.107,0-0.197-0.009-0.27-0.027c-0.162,0.631-0.352,1.226-0.568,1.785h5.246c0.975,0.091,1.461,0.686,1.461,1.785v10.925
				c0,1.154-0.533,1.731-1.596,1.731h-5.68c-0.955,0-1.459-0.532-1.514-1.596v-8.734c-0.072,0.108-0.145,0.216-0.217,0.324
				c-0.18,0.433-0.541,0.686-1.082,0.757c-0.918,0-1.414-0.396-1.486-1.19c-0.09,0.018-0.162,0.027-0.217,0.027h-6.896
				c-0.576,0-0.883-0.477-0.918-1.433C47.031,50.424,47.291,50,47.814,49.82z M47.814,53.417h7.193
				c0.541,0.162,0.813,0.604,0.813,1.325c0,0.902-0.316,1.352-0.947,1.352h-6.924c-0.576,0-0.883-0.478-0.918-1.433
				C47.031,53.994,47.291,53.579,47.814,53.417z M48.059,42.708H54.9c0.541,0.18,0.811,0.631,0.811,1.352
				c0,0.901-0.314,1.352-0.945,1.352h-6.518c-0.613,0-0.93-0.487-0.947-1.46C47.301,43.303,47.553,42.888,48.059,42.708z
				 M53.277,63.828v-2.975c-0.018-0.378-0.207-0.604-0.568-0.676h-2.486c-0.344,0-0.561,0.162-0.65,0.487v3.434
				c0.072,0.342,0.262,0.514,0.568,0.514h2.541C53.078,64.612,53.277,64.351,53.277,63.828z M60.957,51.145
				c-0.289,0-0.477,0.171-0.568,0.514v2.569h3.68v-2.515c0-0.378-0.189-0.568-0.568-0.568H60.957z M64.068,56.824h-3.68v2.948
				c0.037,0.361,0.262,0.541,0.678,0.541H63.5c0.379-0.018,0.568-0.216,0.568-0.595V56.824z"/>
		</g>
		<g>
			<path fill="#FFFFFF" d="M40.403,80.986c0,0.154-0.072,0.298-0.217,0.433c-0.135,0.125-0.279,0.188-0.433,0.188
				c-0.337,0-0.703-0.27-1.098-0.808c-0.452,0.317-1.016,0.476-1.688,0.476c-1.3,0-2.204-0.635-2.715-1.906
				c-0.355-0.875-0.534-2.151-0.534-3.826c0-1.713,0.169-2.979,0.506-3.796c0.5-1.193,1.415-1.791,2.743-1.791
				s2.247,0.597,2.757,1.791c0.327,0.818,0.491,2.083,0.491,3.796c0,1.848-0.217,3.22-0.649,4.115l0.23,0.26
				c0.25,0.308,0.395,0.491,0.434,0.549C40.346,80.639,40.403,80.813,40.403,80.986z M38.671,75.543c0-1.222-0.14-2.223-0.419-3.002
				c-0.308-0.856-0.736-1.285-1.284-1.285c-0.549,0-0.978,0.429-1.285,1.285c-0.279,0.77-0.419,1.771-0.419,3.002
				c0,0.606,0.038,1.174,0.115,1.704c0.395-0.25,0.746-0.375,1.055-0.375c0.587,0,1.236,0.438,1.948,1.313
				C38.574,77.435,38.671,76.554,38.671,75.543z M37.848,79.499c-0.298-0.491-0.49-0.785-0.577-0.881
				c-0.279-0.347-0.559-0.52-0.837-0.52c-0.241,0-0.511,0.11-0.809,0.332c0.317,1.039,0.77,1.559,1.356,1.559
				C37.309,79.99,37.598,79.826,37.848,79.499z"/>
			<path fill="#FFFFFF" d="M47.882,80.813c0,0.308-0.212,0.462-0.636,0.462c-0.356,0-0.866-0.332-1.53-0.996
				c-0.837,0.664-1.593,0.996-2.267,0.996c-0.847,0-1.501-0.25-1.963-0.75c-0.453-0.491-0.679-1.165-0.679-2.021
				c0-1.222,0.616-2.373,1.848-3.451c-0.212-0.395-0.414-0.852-0.606-1.372c-0.222-0.635-0.332-1.121-0.332-1.458
				c0-0.693,0.212-1.246,0.636-1.66c0.423-0.404,0.981-0.606,1.675-0.606c0.597,0,1.102,0.227,1.516,0.679
				c0.413,0.453,0.62,0.987,0.62,1.603c0,0.539-0.226,1.126-0.678,1.761c-0.231,0.308-0.659,0.789-1.285,1.444
				c0.452,0.953,0.972,1.934,1.56,2.945c0.25-0.375,0.442-0.673,0.577-0.895c0.038-0.087,0.11-0.207,0.217-0.361
				c0.144-0.221,0.322-0.332,0.534-0.332c0.153,0,0.298,0.058,0.433,0.173c0.145,0.115,0.217,0.25,0.217,0.404
				c0,0.289-0.414,0.977-1.242,2.064c0.106,0.116,0.27,0.27,0.491,0.462C47.583,80.259,47.882,80.562,47.882,80.813z M44.951,79.297
				c-0.529-0.799-1.093-1.756-1.689-2.873c-0.626,0.895-0.938,1.603-0.938,2.122c0,0.385,0.097,0.717,0.289,0.996
				c0.23,0.308,0.529,0.462,0.895,0.462C43.892,80.004,44.373,79.769,44.951,79.297z M44.879,72.237c0-0.231-0.087-0.452-0.26-0.664
				c-0.184-0.212-0.381-0.318-0.592-0.318c-0.646,0-0.968,0.323-0.968,0.967c0,0.26,0.188,0.895,0.563,1.906
				C44.46,73.272,44.879,72.642,44.879,72.237z"/>
			<path fill="#FFFFFF" d="M54.97,80.582c0,0.202-0.077,0.371-0.23,0.505c-0.145,0.135-0.323,0.202-0.534,0.202
				c-0.347,0-0.563-0.178-0.65-0.534l-0.548-2.295h-2.628l-0.549,2.295c-0.086,0.356-0.288,0.534-0.605,0.534
				c-0.241,0-0.434-0.072-0.578-0.217c-0.154-0.144-0.23-0.332-0.23-0.563c0-0.029,0.009-0.082,0.028-0.159l2.382-9.716
				c0.106-0.452,0.395-0.679,0.866-0.679s0.761,0.227,0.866,0.679l2.383,9.716C54.96,80.428,54.97,80.504,54.97,80.582z
				 M52.675,77.174l-0.982-5.269l-0.981,5.269H52.675z"/>
		</g>
	</g>
</g>
<g id="圖層_2">
</g>
</svg>
