<?xml version="1.0" encoding="utf-8"?>
<!-- Generator: Adobe Illustrator 16.0.0, SVG Export Plug-In . SVG Version: 6.00 Build 0)  -->
<!DOCTYPE svg PUBLIC "-//W3C//DTD SVG 1.1//EN" "http://www.w3.org/Graphics/SVG/1.1/DTD/svg11.dtd">
<svg version="1.1" xmlns="http://www.w3.org/2000/svg" xmlns:xlink="http://www.w3.org/1999/xlink" x="0px" y="0px" width="90px"
	 height="90px" viewBox="0 0 90 90" enable-background="new 0 0 90 90" xml:space="preserve">
<g id="圖層_1">
	<g>
		<path fill="#0E75AF" stroke="#FFFFFF" stroke-width="3" stroke-miterlimit="10" d="M88.334,78.335c0,5.522-4.477,10-10,10H11.666
			c-5.523,0-10-4.478-10-10v-66.67c0-5.522,4.477-10,10-10h66.668c5.523,0,10,4.478,10,10V78.335z"/>
		<g>
			<path fill="#FFFFFF" d="M22.182,18.405v15.576c0,0.685-0.449,1.028-1.352,1.028c-0.738,0-1.199-0.271-1.379-0.812V11.131
				c0.162-1.154,0.91-1.731,2.244-1.731h6.545c1.496,0,2.244,0.55,2.244,1.649v5.571c-0.072,1.172-0.82,1.767-2.244,1.785h-0.379
				c0.018,0.072,0.027,0.135,0.027,0.189c0,0.163-0.234,0.577-0.703,1.244c-0.217,0.378-0.389,0.649-0.514,0.811
				c0.287,0.199,0.549,0.388,0.783,0.568c0.416-0.559,0.813-1.153,1.191-1.785c0.197-0.216,0.459-0.324,0.783-0.324
				c0.486,0.09,0.785,0.226,0.893,0.405c0.18,0.145,0.27,0.37,0.27,0.676c-0.99,1.532-1.938,2.785-2.838,3.759
				c0.773-0.054,1.414-0.099,1.92-0.135c-0.072-0.234-0.137-0.423-0.189-0.568c-0.072-0.36-0.109-0.64-0.109-0.838
				c0.199-0.306,0.506-0.459,0.92-0.459c0.361,0,0.623,0.135,0.785,0.405c0.287,0.433,0.559,1.091,0.811,1.974
				c0.055-0.036,0.117-0.072,0.189-0.108c0.486,0,0.947-0.009,1.379-0.027c0.451-0.433,0.883-0.874,1.299-1.325
				c-0.865-0.613-1.758-1.154-2.678-1.623c-0.486-0.288-0.748-0.595-0.785-0.919c0.164-0.739,0.551-1.19,1.164-1.352
				c0.217,0,0.469,0.126,0.756,0.378c0.127,0.054,0.227,0.108,0.299,0.162c0.234-0.378,0.459-0.757,0.676-1.136
				c-1.064-0.108-1.623-0.829-1.676-2.163v-4.598c0-1.226,0.566-1.956,1.703-2.19h7.598c1.424,0.037,2.174,0.686,2.246,1.947V30.98
				c0,1.532-0.262,2.533-0.785,3.001c-0.162,0.559-1.082,0.838-2.758,0.838c-1.172-0.018-2.102-0.208-2.785-0.568
				c-0.469-0.072-0.803-0.37-1.002-0.893c0-0.343,0.045-0.739,0.137-1.19c0.143-0.378,0.449-0.622,0.918-0.73
				c0.848,0.216,1.633,0.36,2.354,0.433c0.738,0,1.109-0.406,1.109-1.217v-12.25h-4.68c-0.072,0.234-0.307,0.649-0.703,1.244
				c-0.307,0.451-0.521,0.767-0.648,0.947c0.324,0.198,0.613,0.405,0.865,0.622c0.379-0.541,0.758-1.108,1.137-1.704
				c0.18-0.198,0.441-0.297,0.783-0.297c0.451,0.09,0.74,0.226,0.865,0.406c0.199,0.145,0.299,0.37,0.299,0.676
				c-1.047,1.605-2.029,2.858-2.949,3.759c0.74-0.054,1.416-0.126,2.029-0.216c-0.072-0.145-0.135-0.261-0.189-0.352
				c-0.09-0.396-0.135-0.703-0.135-0.919c0.232-0.379,0.566-0.568,1-0.568c0.414,0.019,0.711,0.181,0.893,0.487
				c0.449,0.559,0.848,1.569,1.189,3.029c0,0.451-0.09,0.721-0.27,0.812c-0.199,0.145-0.561,0.216-1.082,0.216
				c-0.396,0-0.613-0.234-0.65-0.703c-0.053-0.144-0.098-0.271-0.135-0.379c-1.568,0.415-3.154,0.73-4.76,0.947
				c-0.469,0.054-0.801,0.09-1,0.108c-0.486,0-0.838-0.144-1.055-0.433c-0.055,0.09-0.1,0.145-0.135,0.163
				c-0.217,0.162-0.578,0.243-1.082,0.243c-0.379,0-0.586-0.234-0.621-0.703c-1.947,0.271-4.139,0.523-6.572,0.757
				c-0.307,0-0.531-0.09-0.676-0.271c-0.18-0.252-0.27-0.712-0.27-1.379c0-0.45,0.279-0.685,0.838-0.703
				c0.541-0.018,1.035-0.044,1.486-0.081c0.379-0.378,0.74-0.766,1.082-1.163c-0.865-0.649-1.748-1.217-2.65-1.704
				c-0.504-0.288-0.766-0.595-0.783-0.919c0.143-0.739,0.521-1.19,1.135-1.352c0.252,0,0.523,0.126,0.813,0.378
				c0.143,0.072,0.27,0.145,0.377,0.216c0.271-0.378,0.523-0.766,0.758-1.163H22.182z M27.402,11.915H22.67
				c-0.324,0.036-0.488,0.171-0.488,0.405v0.352h5.652v-0.243C27.834,12.086,27.689,11.915,27.402,11.915z M27.834,14.835h-5.652
				v1.055h5.031c0.414,0,0.621-0.198,0.621-0.595V14.835z M24.752,26.653c0.756,0,1.162,0.271,1.217,0.812v0.703
				c0,0.271,0.197,0.415,0.594,0.433h2.109c0.037-0.378,0.055-0.775,0.055-1.19c0.072-0.415,0.297-0.694,0.676-0.838
				c0.613,0,1.037,0.072,1.271,0.216c0.307,0.199,0.459,0.649,0.459,1.352c0,2.253-0.432,3.813-1.297,4.679
				c-1.01,1.37-2.506,2.055-4.49,2.055c-0.703,0-1.055-0.568-1.055-1.704c0.254-0.487,0.578-0.749,0.975-0.785
				c1.676-0.162,2.668-0.667,2.975-1.514H25.4c-1.135-0.018-1.73-0.568-1.785-1.649v-1.893
				C23.795,26.969,24.174,26.744,24.752,26.653z M33.703,26.68c0.828,0,1.244,0.343,1.244,1.027v0.974h2.299
				c0.162,0,0.252-0.126,0.27-0.378v-0.676c0-0.631,0.369-0.946,1.109-0.946c0.793,0,1.189,0.297,1.189,0.892v2.137
				c-0.055,0.793-0.523,1.217-1.406,1.271h-3.461v3.218c0,0.559-0.416,0.838-1.244,0.838c-0.74,0-1.137-0.28-1.189-0.838V27.6
				C32.566,26.987,32.963,26.68,33.703,26.68z M35.162,12.672h6.086V12.32c0-0.324-0.154-0.486-0.461-0.486H35.65
				c-0.289,0-0.451,0.145-0.488,0.433V12.672z M41.248,15.89v-1.055h-6.086v0.568c0.055,0.325,0.262,0.487,0.623,0.487H41.248z"/>
			<path fill="#FFFFFF" d="M53.064,9.346c1.01,0.037,1.516,0.406,1.516,1.109v1.731h3.352c0.506,0.09,0.758,0.568,0.758,1.433
				c0,0.974-0.279,1.46-0.838,1.46h-5.518v2.624h3.814c0.143,0.018,0.279,0.045,0.404,0.081c-0.053-0.216-0.08-0.442-0.08-0.676
				c0-0.144,0.107-0.387,0.324-0.73c2.867-2.181,4.939-4.363,6.219-6.544c0.451-0.378,0.875-0.613,1.271-0.703
				c0.396,0,0.758,0.163,1.082,0.487c2.65,3.461,4.742,5.643,6.273,6.544c0.307,0.234,0.461,0.613,0.461,1.136
				c0,0.848-0.379,1.397-1.137,1.649c-0.379,0-0.668-0.036-0.865-0.108c-1.695-0.829-3.453-2.713-5.273-5.652
				c-0.035-0.271-0.199-0.406-0.486-0.406c-2.74,4.021-4.76,6.13-6.059,6.328c-0.234,0-0.432-0.027-0.594-0.082
				c0.125,0.361,0.197,0.794,0.217,1.298c-0.072,7.301-0.244,11.024-0.514,11.168c-0.254,2.145-1.326,3.218-3.219,3.218
				c-1.244,0-2.182-0.126-2.813-0.378c-0.307-0.271-0.479-0.686-0.514-1.244c0.035-0.415,0.107-0.703,0.217-0.865
				c0.018-0.307,0.377-0.478,1.08-0.514c0.686,0.198,1.227,0.306,1.623,0.324c0.775-0.198,1.172-1.208,1.189-3.028
				c0.072-0.847,0.109-3.408,0.109-7.68c0-0.523-0.244-0.784-0.73-0.784h-2.002v1.055c0,5.499-1.063,9.69-3.189,12.575
				c-0.234,0.378-0.596,0.568-1.082,0.568c-0.975-0.09-1.523-0.64-1.65-1.65c0-0.307,0.09-0.595,0.271-0.865
				c1.838-2.416,2.775-5.922,2.813-10.52v-6.625h-2.002c-0.648,0-0.973-0.522-0.973-1.568c0-0.739,0.252-1.181,0.756-1.325h4.436
				V10.4C51.713,9.824,52.164,9.472,53.064,9.346z M60.906,25.139c0.307,0,0.541,0.081,0.703,0.243
				c2.939,1.695,5.977,3.903,9.113,6.625c0.217,0.234,0.326,0.451,0.326,0.649c-0.037,1.136-0.561,1.758-1.568,1.866
				c-0.344,0-0.678-0.172-1.002-0.514c-2.162-1.713-4.939-3.768-8.328-6.166c-0.541-0.504-0.813-0.892-0.813-1.163
				C59.572,25.869,60.096,25.355,60.906,25.139z M62.584,18.432c0.307,0,0.666,0.162,1.082,0.487c2.055,1.352,3.93,2.785,5.625,4.3
				c0.324,0.289,0.486,0.658,0.486,1.108c0,1.172-0.479,1.785-1.434,1.839c-0.342,0-0.658-0.162-0.947-0.486
				c-1.73-1.586-3.506-2.966-5.326-4.138c-0.648-0.415-0.992-0.856-1.027-1.325C61.24,19.243,61.754,18.648,62.584,18.432z"/>
			<path fill="#FFFFFF" d="M19.182,49.633h5.299V47.01c-1.045,0.181-2.189,0.343-3.434,0.487c-0.396,0-0.695-0.045-0.893-0.135
				c-0.506-0.126-0.758-0.676-0.758-1.649c0-0.469,0.189-0.82,0.568-1.055c4.182-0.541,7.338-1.226,9.465-2.055
				c0.451-0.18,0.785-0.298,1-0.352c0.379,0,0.686,0.145,0.92,0.433c0.217,0.343,0.324,0.802,0.324,1.379
				c0,0.235-0.1,0.442-0.297,0.622c-0.145,0.253-0.434,0.424-0.865,0.514c-0.811,0.451-1.912,0.857-3.299,1.217v3.218h5.488
				c-0.18-2.127-0.279-4.236-0.297-6.328c0.127-0.559,0.596-0.847,1.406-0.866c0.883,0.091,1.326,0.406,1.326,0.947
				c0.053,2.182,0.162,4.264,0.324,6.247h8.086c0.504,0.09,0.756,0.568,0.756,1.434c0,0.992-0.279,1.487-0.838,1.487h-7.707
				c0.035,0.396,0.082,0.793,0.135,1.189c0.252,1.425,0.523,2.696,0.813,3.813c1.08-1.388,2-2.812,2.758-4.272
				c0.162-0.271,0.432-0.406,0.811-0.406c1.1,0.072,1.686,0.514,1.758,1.325c0,0.595-0.152,1.082-0.459,1.46
				c-0.957,1.749-2.219,3.479-3.787,5.192c0.127,0.234,0.234,0.451,0.326,0.649c0.973,2.127,1.758,3.191,2.352,3.191
				c0.342,0,0.514-0.486,0.514-1.46c0.199-1.623,0.379-2.758,0.541-3.407c0.271-0.379,0.775-0.595,1.514-0.649
				c0.83,0.216,1.262,0.659,1.299,1.325c-0.127,2.344-0.479,4.138-1.055,5.381c-0.596,1.46-1.396,2.19-2.406,2.19
				c-1.533,0-3.084-1.424-4.652-4.272c-0.145-0.288-0.287-0.577-0.432-0.865c-1.281,1.226-2.705,2.451-4.273,3.678
				c-0.396,0.504-0.91,0.757-1.541,0.757c-0.83-0.234-1.289-0.82-1.379-1.758c0-0.378,0.217-0.739,0.648-1.082
				c2.074-1.46,3.885-3.001,5.436-4.624c-0.631-2.037-1.189-4.426-1.676-7.167c0-0.072-0.01-0.135-0.027-0.189h-5.76v3.326
				c1.369-0.289,2.74-0.604,4.109-0.947c0.793,0,1.227,0.505,1.299,1.515c0,0.721-0.135,1.172-0.406,1.352
				c0,0.343-1.668,0.838-5.002,1.487v5.706c-0.162,1.856-1.1,2.785-2.813,2.785c-1.334,0-2.498-0.09-3.488-0.271
				c-0.83-0.198-1.244-0.802-1.244-1.812c0.125-0.884,0.611-1.325,1.459-1.325c0.723,0.18,1.498,0.324,2.326,0.433
				c0.686-0.018,1.027-0.424,1.027-1.217v-3.786c-1.514,0.271-3.02,0.487-4.516,0.649c-0.758,0-1.172-0.549-1.244-1.649
				c0-0.721,0.189-1.253,0.568-1.596c1.713-0.216,3.443-0.477,5.191-0.784v-3.867h-5.084c-0.613,0-0.918-0.532-0.918-1.596
				C18.479,50.238,18.711,49.796,19.182,49.633z M37.354,42.548c0.27,0,0.496,0.081,0.676,0.243
				c1.424,0.938,2.912,2.173,4.463,3.705c0.232,0.234,0.352,0.442,0.352,0.622c-0.037,1.045-0.533,1.613-1.488,1.704
				c-0.307,0-0.613-0.144-0.92-0.433c-0.99-0.919-2.262-2.028-3.813-3.326c-0.469-0.451-0.703-0.812-0.703-1.082
				C36.137,43.225,36.613,42.747,37.354,42.548z"/>
			<path fill="#FFFFFF" d="M49.252,54.582c-0.145,0.235-0.279,0.442-0.406,0.622c-0.215,0.289-0.576,0.433-1.082,0.433
				c-0.738,0-1.217-0.45-1.432-1.352c0.053-0.378,0.279-0.802,0.676-1.271c1.586-3.011,2.695-6.265,3.326-9.762
				c0.27-0.595,0.631-0.893,1.082-0.893c1.1,0,1.686,0.271,1.758,0.812c0,0.541-0.064,1.019-0.189,1.433
				c-0.324,1.352-0.658,2.587-1.002,3.705v18.903c0,0.595-0.432,0.893-1.297,0.893c-0.83,0-1.309-0.28-1.434-0.838V54.582z
				 M56.662,55.204v11.791c0,0.685-0.451,1.028-1.354,1.028c-0.721,0-1.18-0.28-1.379-0.838v-22.5
				c0.162-1.316,0.91-1.974,2.244-1.974h3.516c1.496,0,2.246,0.622,2.246,1.866v8.626c-0.072,1.298-0.822,1.965-2.246,2.001H56.662z
				 M58.879,45.604h-1.703c-0.344,0.037-0.514,0.172-0.514,0.406v1.596h2.623v-1.488C59.285,45.776,59.15,45.604,58.879,45.604z
				 M59.285,50.066h-2.623v2.299h1.973c0.434,0,0.65-0.216,0.65-0.649V50.066z M69.264,42.71c1.406,0.018,2.154,0.749,2.244,2.19
				v19.579c0,1.37-0.27,2.272-0.811,2.705c-0.162,0.504-1.092,0.757-2.785,0.757c-1.154-0.018-2.074-0.145-2.76-0.378
				c-0.432-0.054-0.738-0.325-0.918-0.811c0-0.289,0.035-0.64,0.107-1.055c0.145-0.325,0.432-0.532,0.865-0.622
				c0.848,0.108,1.631,0.18,2.354,0.216c0.738,0,1.107-0.37,1.107-1.109V55.15H65.1c-1.209,0-1.85-0.757-1.92-2.271v-7.734
				c0-1.334,0.559-2.146,1.676-2.434H69.264z M65.775,47.578h2.893v-1.649c0-0.342-0.152-0.514-0.459-0.514h-2.002
				c-0.252,0-0.396,0.153-0.432,0.459V47.578z M68.668,52.527v-2.461h-2.893v1.947c0.053,0.343,0.242,0.514,0.566,0.514H68.668z"/>
		</g>
		<g>
			<path fill="#FFFFFF" d="M33.831,80.646c0,0.211-0.067,0.395-0.202,0.549c-0.135,0.164-0.303,0.245-0.505,0.245
				c-0.366,0-0.664-0.361-0.896-1.083c-1.021,0.722-1.944,1.083-2.771,1.083c-0.674,0-1.232-0.14-1.675-0.418
				c-0.529-0.337-0.794-0.833-0.794-1.487c0-0.722,0.235-1.265,0.707-1.631c0.317-0.25,0.886-0.477,1.704-0.679
				c0.5-0.125,1.323-0.284,2.469-0.477v-0.289c0.019-1.02-0.521-1.53-1.617-1.53c-0.52,0-1.063,0.149-1.632,0.447
				c-0.51,0.26-0.799,0.39-0.866,0.39c-0.423,0-0.635-0.154-0.635-0.462c0-1.001,1.116-1.501,3.35-1.501
				c0.847,0,1.525,0.188,2.035,0.563c0.597,0.433,0.896,1.054,0.896,1.862v2.108c0,0.568,0.076,1.097,0.23,1.588
				C33.764,80.347,33.831,80.588,33.831,80.646z M31.868,79.606v-1.66c-0.732,0-1.405,0.077-2.021,0.231
				c-0.914,0.25-1.371,0.64-1.371,1.169c0,0.327,0.134,0.578,0.403,0.751c0.222,0.154,0.506,0.231,0.853,0.231
				C30.356,80.328,31.068,80.087,31.868,79.606z"/>
			<path fill="#FFFFFF" d="M41.208,77.744c0,1.146-0.284,2.06-0.852,2.743c-0.52,0.625-1.193,0.938-2.021,0.938
				c-0.914,0-1.626-0.371-2.136-1.112c0,0.75-0.342,1.126-1.025,1.126c-0.52,0-0.779-0.274-0.779-0.823v-9.716
				c0-0.221,0.081-0.409,0.245-0.563c0.145-0.145,0.303-0.217,0.477-0.217c0.221,0,0.419,0.068,0.592,0.202
				c0.173,0.145,0.26,0.328,0.26,0.549v4.389c0.452-0.809,1.29-1.213,2.512-1.213c0.818,0,1.478,0.332,1.979,0.996
				C40.958,75.718,41.208,76.618,41.208,77.744z M39.735,77.816c0-0.731-0.153-1.347-0.462-1.848
				c-0.337-0.549-0.794-0.823-1.371-0.823c-0.559,0-1.011,0.27-1.357,0.809c-0.317,0.491-0.477,1.092-0.477,1.805
				c0,0.779,0.154,1.396,0.463,1.848c0.326,0.491,0.774,0.736,1.342,0.736c0.578,0,1.03-0.216,1.357-0.649
				C39.567,79.26,39.735,78.634,39.735,77.816z"/>
			<path fill="#FFFFFF" d="M48.644,77.614c0,1.165-0.313,2.093-0.938,2.786c-0.606,0.684-1.439,1.025-2.498,1.025
				c-1.049,0-1.882-0.347-2.497-1.04c-0.636-0.703-0.953-1.626-0.953-2.772c0-1.174,0.308-2.098,0.924-2.771
				c0.616-0.693,1.453-1.04,2.512-1.04c1.068,0,1.906,0.346,2.513,1.04C48.33,75.516,48.644,76.44,48.644,77.614z M47.084,77.628
				c0-0.693-0.145-1.294-0.433-1.805c-0.328-0.606-0.809-0.91-1.444-0.91c-0.616,0-1.097,0.303-1.443,0.91
				c-0.299,0.51-0.447,1.112-0.447,1.805c0,0.731,0.144,1.342,0.433,1.833c0.327,0.597,0.809,0.895,1.443,0.895
				c0.636,0,1.121-0.293,1.459-0.881C46.939,78.976,47.084,78.36,47.084,77.628z"/>
			<path fill="#FFFFFF" d="M55.789,80.588c0,0.289-0.082,0.5-0.245,0.635c-0.173,0.144-0.371,0.216-0.592,0.216
				c-0.462,0-0.693-0.371-0.693-1.111c-0.472,0.741-1.188,1.111-2.15,1.111c-1.771,0-2.656-0.953-2.656-2.858v-4.042
				c0-0.491,0.264-0.736,0.794-0.736c0.471,0,0.707,0.245,0.707,0.736v3.768c0,1.348,0.52,2.021,1.56,2.021
				c0.433,0,0.832-0.222,1.198-0.664c0.375-0.453,0.563-0.924,0.563-1.415v-3.725c0-0.481,0.231-0.722,0.693-0.722
				c0.548,0,0.822,0.241,0.822,0.722V80.588z"/>
			<path fill="#FFFFFF" d="M63.167,80.01c0,0.414-0.266,0.76-0.795,1.04c-0.472,0.24-0.977,0.361-1.516,0.361
				c-1.559,0-2.339-0.736-2.339-2.209v-3.753h-1.674c-0.068,0-0.14-0.067-0.217-0.202c-0.087-0.115-0.13-0.24-0.13-0.375
				c0-0.385,0.12-0.578,0.36-0.578h1.66v-2.411c0-0.481,0.251-0.722,0.751-0.722c0.539,0,0.809,0.246,0.809,0.736v2.396h2.122
				c0.279,0,0.419,0.193,0.419,0.578c0,0.135-0.01,0.245-0.029,0.332c-0.038,0.164-0.173,0.245-0.404,0.245h-2.107v3.739
				c0,0.308,0.091,0.563,0.274,0.765c0.173,0.211,0.423,0.317,0.751,0.317c0.269,0,0.515-0.077,0.735-0.231
				c0.231-0.144,0.448-0.293,0.65-0.447c0.086-0.058,0.158-0.087,0.216-0.087C63.013,79.505,63.167,79.673,63.167,80.01z"/>
		</g>
	</g>
</g>
<g id="圖層_2">
</g>
</svg>
