<?xml version="1.0" encoding="utf-8"?>
<!-- Generator: Adobe Illustrator 16.0.0, SVG Export Plug-In . SVG Version: 6.00 Build 0)  -->
<!DOCTYPE svg PUBLIC "-//W3C//DTD SVG 1.1//EN" "http://www.w3.org/Graphics/SVG/1.1/DTD/svg11.dtd">
<svg version="1.1" xmlns="http://www.w3.org/2000/svg" xmlns:xlink="http://www.w3.org/1999/xlink" x="0px" y="0px"
	 width="89.668px" height="186.552px" viewBox="0 0 89.668 186.552" enable-background="new 0 0 89.668 186.552"
	 xml:space="preserve">
<g id="圖層_1">
	<path fill="#0E75AF" stroke="#FFFFFF" stroke-width="3" stroke-miterlimit="10" d="M88.168,175.052c0,5.523-4.477,10-10,10H11.5
		c-5.523,0-10-4.477-10-10V11.5c0-5.523,4.477-10,10-10h66.668c5.523,0,10,4.477,10,10V175.052z"/>
	<g>
		<path fill="#FFFAFA" d="M19.076,86.494h23.646c0.445,0.082,0.668,0.507,0.668,1.277c0,0.851-0.254,1.276-0.76,1.276H31.963v0.729
			h11.336c1.357,0.182,2.037,0.962,2.037,2.34c-0.406,2.675-0.83,4.103-1.275,4.286c-0.184,0.223-0.457,0.334-0.822,0.334
			c-1.336-0.263-2.006-0.76-2.006-1.489c0-0.202,0.295-0.871,0.883-2.006c0-0.365-0.164-0.597-0.486-0.699h-9.666v5.926
			c0,0.689-0.455,1.033-1.367,1.033c-1.014,0-1.52-0.324-1.52-0.972v-5.987h-8.936c-0.283,0.061-0.496,0.203-0.639,0.425v2.675
			c0,0.77-0.477,1.155-1.428,1.155c-0.77,0-1.236-0.253-1.398-0.76v-5.106c0.264-0.77,0.74-1.155,1.43-1.155h10.971v-0.729h-9.787
			c-0.588,0-0.881-0.456-0.881-1.368C18.408,87.031,18.631,86.636,19.076,86.494z M20.598,99.623h19.207
			c1.215,0.021,1.895,0.578,2.037,1.672v7.203c0,1.276-0.66,1.935-1.977,1.975h-8.023c0.203,0.77,0.779,1.155,1.732,1.155
			c1.5,0.04,2.846,0.081,4.043,0.122c2.877,0,4.314-0.122,4.314-0.365c0.346,0,0.518-0.973,0.518-2.918
			c0.223-0.567,0.748-0.851,1.58-0.851c0.973,0,1.479,0.456,1.52,1.368c-0.102,2.755-0.578,4.376-1.428,4.863
			c-0.203,0.486-2.553,0.76-7.051,0.821c-3.041,0-5.047-0.152-6.02-0.456c-1.559-0.081-2.4-1.327-2.521-3.738h-7.932
			c-1.258-0.061-1.896-0.678-1.916-1.854v-7.294C18.701,100.191,19.34,99.623,20.598,99.623z M20.809,93.119h6.9
			c0.445,0.163,0.668,0.558,0.668,1.186c0,0.79-0.273,1.185-0.82,1.185h-6.625c-0.508,0-0.771-0.425-0.791-1.276
			C20.141,93.646,20.363,93.282,20.809,93.119z M20.871,96.219h6.928c0.486,0.142,0.73,0.558,0.73,1.246
			c0,0.811-0.283,1.216-0.852,1.216h-6.656c-0.547,0-0.83-0.436-0.85-1.307C20.172,96.747,20.404,96.361,20.871,96.219z
			 M21.721,103.574h6.777v-1.155h-6.32c-0.244,0-0.396,0.152-0.457,0.456V103.574z M28.498,107.708v-1.52h-6.777v1.003
			c0.082,0.345,0.314,0.517,0.699,0.517H28.498z M31.75,102.419v1.155h6.99v-0.517c-0.02-0.365-0.223-0.578-0.607-0.638H31.75z
			 M38.74,106.917v-0.729h-6.99v1.52h6.383C38.539,107.708,38.74,107.444,38.74,106.917z M33.574,93.18h6.748
			c0.465,0.162,0.697,0.558,0.697,1.185c0,0.791-0.273,1.186-0.82,1.186h-6.504c-0.506,0-0.77-0.426-0.789-1.276
			C32.906,93.707,33.129,93.342,33.574,93.18z M33.605,96.219h6.867c0.467,0.142,0.699,0.537,0.699,1.186
			c0,0.77-0.273,1.155-0.82,1.155h-6.625c-0.508,0-0.771-0.415-0.791-1.246C32.936,96.726,33.158,96.361,33.605,96.219z"/>
		<path fill="#FFFAFA" d="M52.145,87.679h19.754c1.156,0.041,1.754,0.588,1.795,1.641c0,1.033-0.416,1.793-1.246,2.279
			c-1.115,1.033-3.941,2.847-8.48,5.44c-0.121,0.122-0.182,0.253-0.182,0.395c0.566,0.77,1.072,1.53,1.52,2.279h10.271
			c0.609,0.142,0.912,0.74,0.912,1.793c0,1.195-0.344,1.793-1.033,1.793h-8.691c0.303,1.155,0.455,2.29,0.455,3.404
			c-0.082,2.999-0.537,4.934-1.367,5.805c-1.094,1.458-2.887,2.188-5.379,2.188c-3.223-0.102-5.471-0.709-6.748-1.823
			c-0.385-0.345-0.578-0.872-0.578-1.581c0.162-0.527,0.416-0.892,0.76-1.094c0.285-0.223,0.619-0.334,1.004-0.334
			c2.451,0.689,4.365,1.074,5.744,1.155c1.236,0,2.117-0.395,2.645-1.186c0.223-0.567,0.334-1.671,0.334-3.313
			c-0.021-1.074-0.223-2.147-0.607-3.222h-14.59c-0.789,0-1.184-0.638-1.184-1.915c0-0.912,0.293-1.469,0.881-1.672h13.008
			c-0.385-0.567-0.801-1.114-1.246-1.641c-0.162-0.284-0.295-0.668-0.395-1.155c0.039-0.648,0.373-1.195,1.002-1.641
			c2.816-1.56,5.105-2.918,6.869-4.073c0-0.122-0.111-0.182-0.334-0.182h-14.74c-0.893-0.061-1.338-0.639-1.338-1.732
			C50.959,88.256,51.354,87.72,52.145,87.679z"/>
		<path fill="#FFFAFA" d="M18.408,135.571h10.85v-0.882h-9.33c-0.627-0.061-0.941-0.517-0.941-1.367c0-0.669,0.273-1.064,0.82-1.186
			h9.451v-1.155H17.254c-0.568,0-0.852-0.456-0.852-1.367c0-0.669,0.213-1.064,0.639-1.186h12.217v-0.912h-9.27
			c-0.627,0-0.941-0.456-0.941-1.368c0-0.587,0.283-0.973,0.852-1.155h9.33v-0.791c0-0.729,0.516-1.094,1.549-1.094
			c1.055,0,1.582,0.375,1.582,1.125v0.76h8.023c1.418,0.102,2.127,0.628,2.127,1.58v1.854h1.914
			c0.426,0.081,0.639,0.507,0.639,1.276c0,0.851-0.254,1.276-0.76,1.276H42.51v2.066c0,0.933-0.689,1.479-2.066,1.642h-8.055v0.882
			H43.27c0.445,0.081,0.668,0.506,0.668,1.276c0,0.851-0.242,1.276-0.729,1.276h-10.82v0.79h12.219
			c0.445,0.081,0.668,0.527,0.668,1.337c0,0.872-0.254,1.308-0.76,1.308H17.406c-0.588,0-0.883-0.477-0.883-1.429
			c0-0.669,0.223-1.074,0.67-1.216h12.064v-0.79H18.621c-0.566,0-0.852-0.456-0.852-1.368
			C17.77,136.108,17.982,135.713,18.408,135.571z M40.625,151.982H20.748c-1.297-0.182-1.955-0.831-1.975-1.944v-6.14
			c0.182-0.892,0.801-1.378,1.854-1.459h19.998c1.479,0.122,2.219,0.729,2.219,1.823v5.714
			C42.844,151.253,42.104,151.922,40.625,151.982z M39.713,145.904v-0.699c-0.061-0.223-0.254-0.334-0.576-0.334H22.42
			c-0.203,0-0.375,0.102-0.516,0.304v0.729H39.713z M21.904,148.427v0.699c0.061,0.223,0.232,0.354,0.516,0.395h16.656
			c0.424,0,0.637-0.111,0.637-0.334v-0.76H21.904z M39.258,128.429v-0.334c0-0.283-0.172-0.476-0.518-0.577h-6.352v0.912H39.258z
			 M32.389,132.137h6.139c0.486,0,0.73-0.213,0.73-0.638v-0.517h-6.869V132.137z"/>
		<path fill="#FFFAFA" d="M74.422,123.991c0.871,0.082,1.307,0.608,1.307,1.581c0,1.094-0.477,1.641-1.428,1.641H52.51
			c-0.244,0-0.365,0.213-0.365,0.638v20.15c0,0.345,0.182,0.517,0.547,0.517h22.186c0.852,0.062,1.277,0.598,1.277,1.611
			c0,1.053-0.506,1.58-1.52,1.58H50.533c-1.135,0-1.701-0.527-1.701-1.58v-24.436c0.201-1.134,0.789-1.702,1.762-1.702H74.422z
			 M61.719,147.271h-6.504c-1.115-0.02-1.723-0.547-1.824-1.58v-6.777c0-0.992,0.598-1.52,1.793-1.58H61.9
			c1.094,0.102,1.641,0.698,1.641,1.793v6.443C63.541,146.705,62.934,147.271,61.719,147.271z M70.775,136.331h-13.16
			c-1.297-0.202-1.945-0.892-1.945-2.067v-4.346c0.162-0.932,0.77-1.448,1.824-1.55h13.281c1.459,0.142,2.188,0.79,2.188,1.945v3.86
			C72.963,135.551,72.234,136.27,70.775,136.331z M56.795,139.978c-0.203,0-0.334,0.173-0.396,0.517v3.617
			c0.021,0.345,0.264,0.517,0.73,0.517h2.766c0.465-0.021,0.699-0.213,0.699-0.577v-3.495c0-0.385-0.223-0.578-0.67-0.578H56.795z
			 M59.195,131.012c-0.182,0-0.346,0.102-0.486,0.304v1.915c0.061,0.264,0.223,0.416,0.486,0.456h10.121
			c0.385,0,0.576-0.121,0.576-0.364v-1.976c-0.061-0.223-0.232-0.334-0.516-0.334H59.195z M73.48,147.271h-6.504
			c-1.115-0.02-1.713-0.547-1.795-1.58v-6.777c0-0.992,0.588-1.52,1.764-1.58h6.717c1.094,0.102,1.641,0.698,1.641,1.793v6.443
			C75.303,146.705,74.695,147.271,73.48,147.271z M68.557,139.978c-0.203,0-0.334,0.173-0.396,0.517v3.617
			c0.021,0.345,0.264,0.517,0.73,0.517h2.797c0.445-0.021,0.668-0.213,0.668-0.577v-3.495c0-0.385-0.213-0.578-0.639-0.578H68.557z"
			/>
	</g>
	<g>
		<g>
			<path fill="#FFFFFF" d="M30.672,165.253c0,0.617-0.244,0.924-0.736,0.924H25.1c0.049,0.771,0.275,1.371,0.68,1.805
				c0.412,0.424,0.941,0.635,1.588,0.635c0.48,0,0.898-0.1,1.256-0.303c0.02-0.02,0.361-0.26,1.025-0.721
				c0.125-0.098,0.24-0.145,0.346-0.145c0.365,0,0.549,0.182,0.549,0.549c0,0.605-0.404,1.068-1.213,1.385
				c-0.607,0.23-1.275,0.348-2.006,0.348c-1.176,0-2.074-0.328-2.701-0.982c-0.635-0.674-0.953-1.607-0.953-2.801
				c0-1.088,0.348-2.006,1.041-2.758c0.682-0.74,1.563-1.111,2.641-1.111c0.896,0,1.67,0.313,2.324,0.938
				C30.34,163.623,30.672,164.369,30.672,165.253z M29.186,165.369c-0.164-1.424-0.838-2.137-2.021-2.137
				c-0.529,0-0.98,0.193-1.357,0.578c-0.385,0.395-0.615,0.914-0.691,1.559H29.186z"/>
			<path fill="#FFFFFF" d="M37.992,166.033c0,1.146-0.285,2.061-0.852,2.744c-0.52,0.625-1.193,0.938-2.021,0.938
				c-0.914,0-1.627-0.371-2.137-1.111c0,0.75-0.342,1.127-1.025,1.127c-0.52,0-0.779-0.275-0.779-0.824v-9.715
				c0-0.223,0.082-0.41,0.246-0.564c0.145-0.143,0.303-0.215,0.477-0.215c0.221,0,0.418,0.066,0.592,0.201
				c0.172,0.145,0.26,0.328,0.26,0.549v4.389c0.451-0.809,1.289-1.213,2.512-1.213c0.818,0,1.477,0.332,1.979,0.996
				C37.742,164.007,37.992,164.908,37.992,166.033z M36.52,166.105c0-0.73-0.154-1.348-0.463-1.848
				c-0.336-0.549-0.793-0.822-1.371-0.822c-0.559,0-1.01,0.27-1.357,0.809c-0.316,0.49-0.477,1.092-0.477,1.805
				c0,0.779,0.154,1.395,0.463,1.848c0.326,0.49,0.775,0.736,1.342,0.736c0.578,0,1.031-0.217,1.357-0.65
				C36.352,167.548,36.52,166.923,36.52,166.105z"/>
			<path fill="#FFFFFF" d="M45.428,165.904c0,1.164-0.314,2.094-0.939,2.785c-0.605,0.684-1.439,1.025-2.498,1.025
				c-1.049,0-1.881-0.346-2.496-1.039c-0.637-0.703-0.953-1.627-0.953-2.771c0-1.174,0.307-2.098,0.924-2.771
				c0.615-0.693,1.453-1.041,2.512-1.041c1.068,0,1.906,0.348,2.512,1.041C45.113,163.806,45.428,164.73,45.428,165.904z
				 M43.867,165.917c0-0.693-0.145-1.295-0.432-1.805c-0.328-0.605-0.809-0.908-1.445-0.908c-0.615,0-1.096,0.303-1.443,0.908
				c-0.299,0.51-0.447,1.111-0.447,1.805c0,0.732,0.145,1.344,0.434,1.834c0.326,0.598,0.809,0.895,1.443,0.895
				s1.121-0.293,1.459-0.881C43.723,167.265,43.867,166.65,43.867,165.917z"/>
			<path fill="#FFFFFF" d="M52.818,165.904c0,1.164-0.313,2.094-0.938,2.785c-0.607,0.684-1.439,1.025-2.498,1.025
				c-1.049,0-1.883-0.346-2.498-1.039c-0.635-0.703-0.953-1.627-0.953-2.771c0-1.174,0.309-2.098,0.924-2.771
				c0.617-0.693,1.453-1.041,2.512-1.041c1.068,0,1.906,0.348,2.514,1.041C52.506,163.806,52.818,164.73,52.818,165.904z
				 M51.26,165.917c0-0.693-0.145-1.295-0.434-1.805c-0.328-0.605-0.809-0.908-1.443-0.908c-0.617,0-1.098,0.303-1.443,0.908
				c-0.299,0.51-0.447,1.111-0.447,1.805c0,0.732,0.143,1.344,0.432,1.834c0.328,0.598,0.809,0.895,1.443,0.895
				c0.637,0,1.121-0.293,1.459-0.881C51.115,167.265,51.26,166.65,51.26,165.917z"/>
			<path fill="#FFFFFF" d="M60.08,168.56c0.135,0.135,0.203,0.279,0.203,0.434c0,0.191-0.088,0.365-0.262,0.52
				c-0.162,0.145-0.346,0.217-0.547,0.217c-0.213,0-0.404-0.098-0.578-0.289l-2.787-3.221l-1.023,0.752v2.021
				c0,0.48-0.242,0.721-0.723,0.721c-0.52,0-0.779-0.24-0.779-0.721v-9.846c0-0.473,0.246-0.713,0.736-0.723
				c0.51-0.01,0.766,0.23,0.766,0.723v6.004l3.492-2.627c0.164-0.125,0.332-0.188,0.506-0.188c0.193,0,0.365,0.078,0.52,0.23
				c0.154,0.154,0.23,0.332,0.23,0.535c0,0.201-0.092,0.381-0.273,0.533l-2.268,1.689L60.08,168.56z"/>
			<path fill="#FFFFFF" d="M67.473,167.738c0,1.328-1.055,1.992-3.162,1.992c-0.771,0-1.459-0.088-2.064-0.26
				c-0.914-0.271-1.371-0.684-1.371-1.242c0-0.414,0.188-0.621,0.563-0.621c0.105,0,0.283,0.072,0.533,0.217
				c0.193,0.115,0.381,0.227,0.564,0.332c0.596,0.289,1.227,0.434,1.891,0.434c0.299,0,0.615-0.063,0.953-0.188
				c0.424-0.145,0.635-0.342,0.635-0.594c0-0.26-0.318-0.547-0.953-0.865c-0.24-0.125-0.605-0.283-1.098-0.477
				c-1.088-0.424-1.717-0.688-1.891-0.793c-0.674-0.414-1.01-0.963-1.01-1.646c0-0.723,0.355-1.246,1.068-1.574
				c0.529-0.24,1.203-0.361,2.02-0.361c2.031,0,3.047,0.469,3.047,1.4c0,0.338-0.174,0.506-0.52,0.506
				c-0.068,0-0.352-0.109-0.852-0.332c-0.617-0.279-1.199-0.418-1.746-0.418c-0.338,0-0.65,0.053-0.939,0.158
				c-0.385,0.164-0.578,0.381-0.578,0.65c0,0.316,0.424,0.635,1.271,0.953c1.328,0.471,2.117,0.779,2.367,0.924
				C67.049,166.404,67.473,167.005,67.473,167.738z"/>
		</g>
	</g>
	<g id="Page-1_3_">
		<g id="_x30_54---EBook_3_">
			<path id="Rectangle-path_3_" fill="#415C6D" d="M26.375,12.512h36.543c3.363,0,6.092,2.727,6.092,6.09v46.694
				c0,3.364-2.729,6.091-6.092,6.091H26.375c-3.363,0-6.09-2.727-6.09-6.091V18.603C20.285,15.239,23.012,12.512,26.375,12.512z"/>
			<path id="Shape_35_" fill="#3EA8CD" d="M64.807,19.902c-0.207-0.531-0.627-0.951-1.158-1.157c-0.23-0.094-0.48-0.142-0.73-0.142
				H26.375c-1.119,0.003-2.027,0.911-2.029,2.03v42.634c0,0.098,0.008,0.197,0.02,0.294c0.059,0.416,0.25,0.8,0.549,1.096
				c0.373,0.411,0.904,0.643,1.461,0.639h36.543c1.121-0.003,2.027-0.91,2.031-2.03V20.633C64.949,20.382,64.9,20.134,64.807,19.902
				L64.807,19.902z"/>
			<path id="Shape_34_" fill="#6EB8CD" d="M63.648,18.745c-8.617,0.802-38.41,6.375-39.283,44.817
				c-0.012-0.098-0.02-0.196-0.02-0.294V20.633c0.002-1.12,0.91-2.027,2.029-2.03h36.543C63.168,18.603,63.418,18.651,63.648,18.745
				z"/>
			<circle id="Oval_3_" fill="#393F4B" cx="44.646" cy="68.342" r="3.045"/>
			<path id="Shape_33_" fill="#E04C34" d="M56.828,24.693h2.029c1.121,0.003,2.027,0.91,2.031,2.03v20.302
				c-0.004,1.12-0.91,2.027-2.031,2.03H47.539c-0.424-0.014-0.811,0.243-0.963,0.64c-0.275,0.833-1.053,1.396-1.93,1.396
				s-1.654-0.563-1.928-1.396c-0.152-0.397-0.541-0.654-0.965-0.64H30.436c-1.119-0.003-2.027-0.91-2.031-2.03V26.724
				c0.004-1.12,0.912-2.027,2.031-2.03h2.029"/>
			<path id="Shape_32_" fill="#F8E8AB" d="M56.828,23.678v17.257h-10.15c-1.121,0.003-2.027,0.91-2.031,2.03V24.693
				c0.004-1.12,0.91-2.027,2.031-2.03h9.135C56.373,22.663,56.828,23.118,56.828,23.678z"/>
			<path id="Shape_31_" fill="#F1D24B" d="M44.646,42.965v2.03H33.48c-0.561,0-1.016-0.455-1.016-1.015v-3.045h10.152
				C43.736,40.938,44.643,41.845,44.646,42.965z"/>
			<path id="Shape_30_" fill="#F1D24B" d="M56.828,40.935v3.045c0,0.561-0.455,1.015-1.016,1.015H44.646v-2.03
				c0.004-1.12,0.91-2.027,2.031-2.03H56.828z"/>
			<path id="Shape_29_" fill="#F4EDC7" d="M44.646,24.693v18.272c-0.004-1.12-0.91-2.027-2.029-2.03H32.465V23.678
				c0-0.561,0.455-1.015,1.016-1.015h9.137C43.736,22.667,44.643,23.574,44.646,24.693z"/>
			<g>
				<path id="Shape_28_" fill="#FFFFFF" d="M58.857,57.176H30.436c-0.561,0-1.016-0.454-1.016-1.015
					c0-0.561,0.455-1.015,1.016-1.015h28.422c0.561,0,1.016,0.455,1.016,1.015C59.873,56.722,59.418,57.176,58.857,57.176z"/>
				<path id="Shape_27_" fill="#FFFFFF" d="M53.783,61.237H35.512c-0.561,0-1.016-0.455-1.016-1.015s0.455-1.015,1.016-1.015h18.271
					c0.561,0,1.014,0.455,1.014,1.015S54.344,61.237,53.783,61.237z"/>
			</g>
		</g>
	</g>
</g>
<g id="圖層_2">
</g>
</svg>
