<?xml version="1.0" encoding="utf-8"?>
<!-- Generator: Adobe Illustrator 16.0.0, SVG Export Plug-In . SVG Version: 6.00 Build 0)  -->
<!DOCTYPE svg PUBLIC "-//W3C//DTD SVG 1.1//EN" "http://www.w3.org/Graphics/SVG/1.1/DTD/svg11.dtd">
<svg version="1.1" xmlns="http://www.w3.org/2000/svg" xmlns:xlink="http://www.w3.org/1999/xlink" x="0px" y="0px" width="89.67px"
	 height="89.67px" viewBox="0 0 89.67 89.67" enable-background="new 0 0 89.67 89.67" xml:space="preserve">
<g id="圖層_1">
	<g>
		<path fill="#0E75AF" stroke="#FFFFFF" stroke-width="3" stroke-miterlimit="10" d="M88.17,78.17c0,5.522-4.477,10-10,10H11.5
			c-5.521,0-10-4.478-10-10V11.5c0-5.522,4.479-10,10-10h66.67c5.523,0,10,4.478,10,10V78.17z"/>
		<g>
			<path fill="#FFFFFF" d="M19.15,18.943h24.527c0.434,0.072,0.65,0.486,0.65,1.244c0,0.848-0.244,1.271-0.73,1.271H31.375V34.06
				c0,0.612-0.424,0.919-1.271,0.919c-0.938,0-1.406-0.307-1.406-0.919v-1.785c-0.775,0.126-1.848,0.271-3.219,0.433
				c-1.947,0.289-3.902,0.496-5.867,0.622c-0.633,0-0.975-0.442-1.027-1.325c0-0.577,0.152-1.01,0.459-1.298
				c0.721-0.036,1.441-0.09,2.164-0.162v-9.086h-1.84c-0.559,0-0.838-0.45-0.838-1.352C18.529,19.457,18.736,19.069,19.15,18.943z
				 M39.893,18.024H23.127c-1.154-0.198-1.74-0.829-1.758-1.893v-5.247c0.18-0.883,0.729-1.361,1.648-1.433h16.875
				c1.279,0.108,1.92,0.703,1.92,1.785v4.841C41.813,17.303,41.172,17.952,39.893,18.024z M23.748,21.458v1.028h4.949v-1.028H23.748
				z M23.748,24.812v1.271h4.949v-1.271H23.748z M23.748,30.301c1.623-0.162,3.271-0.352,4.949-0.568v-1.325h-4.949V30.301z
				 M24.506,11.831c-0.145,0-0.279,0.099-0.406,0.297v0.568h15.008v-0.541c-0.035-0.216-0.197-0.324-0.486-0.324H24.506z
				 M39.107,14.644H24.1v0.568c0.055,0.234,0.189,0.37,0.406,0.405h14.088c0.344,0,0.514-0.117,0.514-0.352V14.644z M41.379,22.513
				c1.281,0,1.922,0.532,1.922,1.596c-0.236,2.127-1.299,4.165-3.191,6.111c0.938,0.613,1.928,1.145,2.975,1.596
				c0.721,0.216,1.082,0.649,1.082,1.298c-0.055,1.028-0.471,1.542-1.244,1.542c-0.488,0-1.092-0.226-1.813-0.676
				c-1.117-0.487-2.189-1.108-3.219-1.866c-2.055,1.568-3.65,2.443-4.785,2.623c-0.344,0-0.578-0.126-0.703-0.378
				c-0.234-0.216-0.434-0.613-0.596-1.19c0-0.505,0.172-0.875,0.514-1.109c1.299-0.505,2.451-1.073,3.461-1.704
				c-0.738-0.667-1.451-1.424-2.135-2.271c-0.416-0.595-0.623-1.1-0.623-1.515c0.486-0.721,1.02-1.099,1.596-1.136
				c0.307,0.037,0.576,0.199,0.811,0.487c0.813,1.028,1.678,1.947,2.598,2.758c0.99-0.955,1.711-1.983,2.162-3.083
				c0-0.307-0.189-0.46-0.568-0.46h-6.76c-0.451,0-0.676-0.441-0.676-1.325c0-0.703,0.217-1.126,0.648-1.271L41.379,22.513z"/>
			<path fill="#FFFFFF" d="M47.383,11.155h4.543v-0.919c0-0.559,0.434-0.901,1.299-1.027c0.973,0.036,1.461,0.396,1.461,1.082v0.865
				h4.678c0.486,0.09,0.73,0.559,0.73,1.406c0,0.938-0.271,1.406-0.813,1.406h-1.324c0.072,0.054,0.125,0.108,0.162,0.162
				c0.217,0.199,0.324,0.478,0.324,0.838c-0.396,1.136-0.783,2.064-1.162,2.786h2.299c0.486,0.108,0.729,0.568,0.729,1.379
				c0,0.902-0.27,1.352-0.811,1.352h-4.949v1.866h5.031c0.559,0.18,0.838,0.658,0.838,1.433c0,0.919-0.324,1.379-0.975,1.379h-4.244
				l0.025,0.027c3.029,2.398,4.545,3.993,4.545,4.787c0,0.45-0.189,0.82-0.568,1.108c-0.217,0.271-0.551,0.406-1.002,0.406
				c-0.234,0-0.514-0.162-0.838-0.487c-0.811-0.974-1.748-1.992-2.813-3.056v5.841c0,0.649-0.424,0.973-1.27,0.973
				c-0.957,0-1.434-0.315-1.434-0.946v-5.219c-1.064,1.623-2.182,2.849-3.354,3.678c-0.107,0.126-0.352,0.207-0.73,0.244
				c-0.721,0-1.199-0.505-1.434-1.515c0-0.415,0.1-0.767,0.299-1.055c1.982-1.55,3.496-3.146,4.543-4.786h-3.867
				c-0.633,0-0.957-0.496-0.975-1.487c0-0.703,0.279-1.145,0.838-1.325h4.68v-1.866H47.33c-0.613,0-0.92-0.487-0.92-1.46
				c0-0.685,0.234-1.109,0.703-1.271h2.92c-0.289-0.505-0.613-1.019-0.973-1.542c-0.199-0.288-0.334-0.487-0.406-0.595
				c-0.127-0.198-0.189-0.433-0.189-0.703c0-0.433,0.162-0.748,0.486-0.946H47.6c-0.631,0-0.947-0.504-0.947-1.514
				C46.652,11.732,46.896,11.299,47.383,11.155z M54.359,17.753c0.631-1.045,1.209-2.29,1.732-3.732l0.053-0.054h-5.705
				c0.162,0.126,0.297,0.262,0.404,0.406c0.541,0.649,0.992,1.307,1.354,1.974c0.197,0.307,0.297,0.604,0.297,0.892
				c0,0.199-0.037,0.37-0.107,0.514H54.359z M63.824,19.781v3.678c-0.162,5.427-0.893,8.987-2.189,10.682
				c-0.271,0.27-0.578,0.423-0.92,0.459c-0.83,0-1.344-0.451-1.541-1.352c0-0.307,0.045-0.604,0.135-0.893
				c1.207-2.397,1.82-5.598,1.84-9.6V12.183c0-1.208,0.549-1.929,1.648-2.164c3.463-0.108,5.869-0.415,7.221-0.919
				c1.064,0,1.613,0.424,1.65,1.271c0,0.974-0.244,1.479-0.73,1.515c-0.613,0.342-2.857,0.631-6.734,0.865
				c-0.217,0.072-0.342,0.243-0.379,0.514v3.57h8.086c0.541,0.036,0.813,0.496,0.813,1.379c0,1.046-0.307,1.568-0.92,1.568h-2.354
				V33.79c0,0.667-0.451,1-1.352,1c-1.01,0-1.514-0.325-1.514-0.974V19.781H63.824z"/>
			<path fill="#FFFFFF" d="M20.178,49.387c0.289,0,0.523,0.081,0.703,0.244c1.371,0.865,2.787,2.001,4.246,3.407
				c0.217,0.252,0.324,0.469,0.324,0.649c-0.035,1.064-0.549,1.649-1.541,1.758c-0.307,0-0.621-0.153-0.945-0.46
				c-0.92-0.829-2.092-1.82-3.516-2.975c-0.506-0.487-0.758-0.865-0.758-1.136C18.908,50.082,19.402,49.586,20.178,49.387z
				 M23.668,56.688c1.297,0,1.945,0.55,1.945,1.65c0,0.577-0.684,2.254-2.055,5.03c-1.117,2.181-1.74,3.29-1.865,3.326
				c-0.344,0.595-0.768,0.893-1.271,0.893c-0.865,0-1.416-0.505-1.65-1.515c0-0.343,0.064-0.631,0.189-0.865
				c0.145-0.252,0.631-1.154,1.461-2.704c0.811-1.352,1.604-2.984,2.379-4.895C23.035,57.158,23.324,56.851,23.668,56.688z
				 M20.963,42.545c0.27,0,0.496,0.09,0.676,0.271c1.01,0.83,2.055,1.911,3.137,3.245c0.234,0.252,0.352,0.469,0.352,0.649
				c-0.053,1.082-0.576,1.668-1.568,1.758c-0.307,0-0.631-0.153-0.973-0.459c-0.613-0.775-1.416-1.722-2.408-2.84
				c-0.486-0.468-0.729-0.838-0.729-1.108C19.664,43.267,20.17,42.762,20.963,42.545z M30.131,42.626
				c1.027,0.181,1.541,0.659,1.541,1.434c0,0.451-0.92,1.704-2.758,3.759c-0.975,1.172-1.705,1.758-2.191,1.758
				c-0.793,0-1.352-0.406-1.676-1.217c0-0.361,0.117-0.721,0.352-1.082c1.658-1.658,2.947-3.101,3.867-4.327
				C29.498,42.735,29.787,42.626,30.131,42.626z M34.592,42.383c1.027,0.036,1.541,0.415,1.541,1.136v5.949h5.004
				c1.027,0.072,1.541,0.64,1.541,1.704v14.089c0,1.568-0.955,2.353-2.867,2.353c-1.027,0-2.162-0.126-3.406-0.378
				c-0.668-0.126-1.047-0.487-1.137-1.082c0-0.361,0.045-0.739,0.137-1.136c0.287-0.433,0.666-0.649,1.135-0.649
				c1.01,0.234,1.857,0.352,2.543,0.352c0.521,0,0.783-0.216,0.783-0.649v-2.136H29.4v4.543c0,0.829-0.461,1.244-1.379,1.244
				c-0.795,0-1.264-0.307-1.406-0.919V50.956c0.07-0.991,0.576-1.487,1.514-1.487h5.111v-6.003
				C33.24,42.87,33.691,42.51,34.592,42.383z M29.4,54.58h10.465v-1.758c0-0.36-0.172-0.541-0.514-0.541h-9.492
				c-0.307,0-0.459,0.126-0.459,0.378V54.58z M29.4,59.312h10.465v-2.083H29.4V59.312z M39.379,42.626
				c0.197,0.019,0.379,0.1,0.541,0.244c0.828,0.523,2.127,1.92,3.895,4.191c0.305,0.433,0.459,0.784,0.459,1.055
				c-0.018,1.028-0.523,1.542-1.514,1.542c-0.416,0-0.785-0.189-1.109-0.568c-0.721-0.991-1.678-2.199-2.867-3.624
				c-0.594-0.559-0.9-0.964-0.918-1.217c0-0.234,0.035-0.441,0.107-0.622C38.26,43.069,38.73,42.735,39.379,42.626z"/>
			<path fill="#FFFFFF" d="M49.926,58.744c0.973,0,1.459,0.324,1.459,0.973c0,0.433-0.045,0.803-0.135,1.109
				c-0.451,2.344-1.109,4.119-1.975,5.327c-0.307,0.703-0.666,1.055-1.08,1.055c-0.938,0-1.551-0.352-1.84-1.055
				c0-0.505,0.09-0.91,0.271-1.217c1.08-1.785,1.748-3.56,2-5.327C48.807,59.033,49.24,58.744,49.926,58.744z M50.656,44.465h5.461
				l0.758-1.785c0.234-0.324,0.568-0.487,1-0.487c0.434,0,0.83,0.1,1.191,0.297c0.197,0.163,0.342,0.361,0.432,0.595
				c0.107,0.252,0.162,0.514,0.162,0.784l-0.27,0.595h8.031c1.207,0.019,1.855,0.514,1.947,1.487v10.06
				c0,1.154-0.631,1.74-1.893,1.758h-7.303c0.559,0.667,1.254,1.884,2.082,3.65c0.109,0.289,0.182,0.496,0.217,0.622
				c0,0.884-0.496,1.388-1.486,1.515c-0.523,0-0.93-0.216-1.217-0.649c-0.723-1.64-1.389-2.965-2.002-3.975
				c-0.107-0.144-0.162-0.396-0.162-0.757c0-0.145,0.018-0.279,0.055-0.406h-7.004c-1.227-0.036-1.857-0.586-1.895-1.65V46.007
				C48.799,44.979,49.43,44.465,50.656,44.465z M51.764,48.143h14.631v-0.514c-0.02-0.378-0.217-0.585-0.596-0.622H52.115
				c-0.197,0-0.314,0.135-0.352,0.406V48.143z M51.764,51.659h14.631v-1.271H51.764V51.659z M66.395,54.58v-0.757H51.764v0.974
				c0.072,0.307,0.279,0.459,0.623,0.459h13.412C66.195,55.255,66.395,55.03,66.395,54.58z M54.17,58.095
				c1.064,0,1.596,0.361,1.596,1.082v5.084c0.145,0.433,0.496,0.649,1.055,0.649h6.031c0.686,0,1.027-0.352,1.027-1.055v-1.893
				c0.145-0.433,0.631-0.667,1.461-0.703c0.92,0,1.396,0.343,1.434,1.028v2.461c-0.072,1.785-0.965,2.74-2.678,2.866h-8.707
				c-1.461,0-2.318-0.64-2.57-1.92v-6.707C52.963,58.393,53.414,58.095,54.17,58.095z M68.18,58.582
				c0.395,0.037,0.818,0.307,1.27,0.812c0.92,1.785,1.695,3.534,2.326,5.246c0.234,0.36,0.352,0.703,0.352,1.028
				c0,0.883-0.523,1.361-1.568,1.433c-0.486,0-0.902-0.216-1.244-0.649c-0.504-1.316-1.092-2.677-1.758-4.083
				c-0.361-0.739-0.604-1.226-0.73-1.46c-0.162-0.216-0.242-0.504-0.242-0.865C66.584,59.249,67.115,58.762,68.18,58.582z"/>
		</g>
		<g>
			<path fill="#FFFFFF" d="M35.363,80.437c0,0.27-0.072,0.477-0.217,0.621c-0.164,0.144-0.352,0.216-0.563,0.216
				c-0.51,0-0.765-0.274-0.765-0.823V77.03c0-0.722-0.092-1.251-0.274-1.588c-0.222-0.433-0.626-0.65-1.213-0.65
				c-0.52,0-0.938,0.246-1.256,0.736c-0.289,0.433-0.433,0.958-0.433,1.574v3.334c0,0.558-0.266,0.837-0.795,0.837
				c-0.48,0-0.722-0.284-0.722-0.852v-5.919c0-0.578,0.255-0.866,0.766-0.866c0.52,0,0.779,0.284,0.779,0.852v0.246
				c0.606-0.731,1.4-1.097,2.382-1.097c0.703,0,1.256,0.255,1.66,0.765c0.434,0.568,0.65,1.4,0.65,2.498V80.437z"/>
			<path fill="#FFFFFF" d="M43.115,76.799c0,0.616-0.245,0.924-0.736,0.924h-4.836c0.048,0.77,0.274,1.372,0.679,1.805
				c0.413,0.423,0.942,0.635,1.588,0.635c0.481,0,0.899-0.101,1.256-0.303c0.02-0.02,0.361-0.26,1.025-0.722
				c0.125-0.096,0.24-0.144,0.346-0.144c0.366,0,0.549,0.183,0.549,0.548c0,0.606-0.404,1.068-1.213,1.386
				c-0.606,0.231-1.275,0.346-2.006,0.346c-1.175,0-2.074-0.327-2.7-0.981c-0.635-0.674-0.953-1.607-0.953-2.801
				c0-1.087,0.347-2.007,1.04-2.757c0.683-0.741,1.563-1.112,2.642-1.112c0.896,0,1.67,0.313,2.324,0.938
				C42.783,75.168,43.115,75.914,43.115,76.799z M41.629,76.915c-0.164-1.424-0.838-2.137-2.021-2.137
				c-0.529,0-0.981,0.193-1.357,0.578c-0.385,0.395-0.616,0.915-0.692,1.559H41.629z"/>
			<path fill="#FFFFFF" d="M50.579,74.302c0,0.144-0.01,0.265-0.028,0.361l-1.228,5.818c-0.115,0.529-0.39,0.794-0.823,0.794
				c-0.385,0-0.635-0.279-0.75-0.837l-0.723-3.349l-0.722,3.349c-0.115,0.558-0.36,0.837-0.736,0.837
				c-0.183,0-0.346-0.067-0.49-0.202c-0.184-0.144-0.299-0.342-0.347-0.592l-1.228-5.818c-0.019-0.096-0.028-0.217-0.028-0.361
				c0-0.462,0.274-0.693,0.822-0.693c0.376,0,0.611,0.27,0.708,0.808l0.606,3.494l0.664-3.393c0.115-0.597,0.36-0.895,0.736-0.895
				c0.395,0,0.649,0.298,0.765,0.895l0.664,3.378l0.621-3.479c0.096-0.539,0.332-0.808,0.707-0.808
				C50.31,73.609,50.579,73.84,50.579,74.302z"/>
			<path fill="#FFFFFF" d="M57.74,79.282c0,1.328-1.055,1.992-3.162,1.992c-0.771,0-1.458-0.086-2.064-0.26
				c-0.914-0.27-1.371-0.684-1.371-1.242c0-0.414,0.188-0.621,0.563-0.621c0.106,0,0.284,0.072,0.534,0.216
				c0.192,0.116,0.38,0.227,0.563,0.333c0.597,0.289,1.227,0.433,1.891,0.433c0.299,0,0.616-0.063,0.953-0.188
				c0.424-0.145,0.635-0.341,0.635-0.592c0-0.26-0.317-0.549-0.952-0.866c-0.241-0.125-0.606-0.284-1.098-0.477
				c-1.088-0.423-1.718-0.688-1.891-0.794c-0.674-0.414-1.011-0.962-1.011-1.646c0-0.722,0.355-1.247,1.068-1.574
				c0.529-0.241,1.203-0.361,2.021-0.361c2.031,0,3.047,0.467,3.047,1.4c0,0.337-0.174,0.505-0.521,0.505
				c-0.067,0-0.351-0.11-0.852-0.332c-0.616-0.279-1.198-0.418-1.746-0.418c-0.338,0-0.65,0.053-0.938,0.159
				c-0.386,0.164-0.578,0.38-0.578,0.65c0,0.317,0.424,0.635,1.271,0.953c1.328,0.472,2.117,0.78,2.368,0.924
				C57.316,77.949,57.74,78.551,57.74,79.282z"/>
		</g>
	</g>
</g>
<g id="圖層_2">
</g>
</svg>
