<?xml version="1.0" encoding="utf-8"?>
<!-- Generator: Adobe Illustrator 16.0.0, SVG Export Plug-In . SVG Version: 6.00 Build 0)  -->
<!DOCTYPE svg PUBLIC "-//W3C//DTD SVG 1.1//EN" "http://www.w3.org/Graphics/SVG/1.1/DTD/svg11.dtd">
<svg version="1.1" xmlns="http://www.w3.org/2000/svg" xmlns:xlink="http://www.w3.org/1999/xlink" x="0px" y="0px" width="186px"
	 height="89.251px" viewBox="0 0 186 89.251" enable-background="new 0 0 186 89.251" xml:space="preserve">
<g id="圖層_1">
	<path fill="#0F6991" d="M2.59,79.264c0,5.522,4.477,10,10,10h161.336c5.523,0,10-4.478,10-10V53.302c0-5.523-4.477-10-10-10H12.59
		c-5.523,0-10,4.477-10,10V79.264z"/>
	<path fill="#FFFFFF" d="M183.926,74.264c0,5.522-4.477,10-10,10H12.59c-5.523,0-10-4.478-10-10V36.977c0-5.523,4.477-10,10-10
		h161.336c5.523,0,10,4.477,10,10V74.264z"/>
	<path fill="none" stroke="#0E75AF" stroke-width="3" stroke-miterlimit="10" d="M183.926,74.264c0,5.522-4.477,10-10,10H12.59
		c-5.523,0-10-4.478-10-10V36.977c0-5.523,4.477-10,10-10h161.336c5.523,0,10,4.477,10,10V74.264z"/>
	<g>
		<path fill-rule="evenodd" clip-rule="evenodd" fill="#0E75AF" stroke="#FFFFFF" stroke-width="5" stroke-miterlimit="10" d="
			M25.702,28.855c0.207,1.72,0.401,3.344,0.597,4.967c0.053,0.417,0.126,0.832,0.156,1.25c0.065,0.938-0.605,1.459-1.498,1.163
			c-1.077-0.358-2.144-0.746-3.223-1.095c-0.521-0.167-0.847-0.489-1.073-0.98c-0.584-1.281-1.215-2.54-1.798-3.82
			c-0.17-0.372-0.354-0.484-0.767-0.394c-1.107,0.243-2.218,0.519-3.341,0.614c-0.676,0.056-1.425-0.084-2.061-0.34
			c-1.076-0.436-1.854-1.303-2.488-2.257c-1.42-2.132-2.263-4.466-2.133-7.055c0.038-0.798,0.279-1.611,0.563-2.366
			c0.285-0.75,0.913-1.219,1.674-1.527c5.893-2.376,11.066-5.812,15.423-10.459c0.185-0.199,0.359-0.412,0.511-0.637
			c1.284-1.907,3.208-2.57,5.388-1.833c1.262,0.425,2.318,1.183,3.259,2.102c2.754,2.692,4.386,6.033,5.452,9.666
			c0.831,2.828,1.204,5.715,0.536,8.648c-0.272,1.185-0.77,2.267-1.619,3.161c-1.034,1.091-2.295,1.38-3.783,1.254
			c-2.045-0.173-4.104-0.21-6.161-0.236C28.145,28.666,26.973,28.789,25.702,28.855z M24.888,10.506
			c-0.242,0.192-0.354,0.277-0.46,0.37c-3.965,3.454-8.36,6.208-13.248,8.16c-0.522,0.207-0.729,0.584-0.847,1.077
			c-0.582,2.448,0.872,6.475,2.929,7.923c0.352,0.248,0.923,0.407,1.329,0.315c5.187-1.178,10.437-1.763,15.752-1.826
			c0.146-0.001,0.297-0.043,0.538-0.081c-2.072-2.183-3.497-4.647-4.519-7.341C25.331,16.389,24.862,13.559,24.888,10.506z
			 M27.111,11.051c1.799,0.156,2.915,1.198,3.846,2.503c0.946,1.331,1.661,2.784,2.017,4.379c0.492,2.192,0.601,4.346-1.134,6.305
			c0.822,0.664,1.577,1.411,2.456,1.954c1.822,1.126,3.282,0.591,4.06-1.402c0.552-1.416,0.686-2.908,0.561-4.404
			c-0.357-4.166-1.851-7.909-4.356-11.242c-0.878-1.166-1.916-2.181-3.268-2.807c-1.419-0.654-2.545-0.293-3.308,1.062
			C27.359,8.506,27.248,9.736,27.111,11.051z M30.536,22.405c1.507-2.209-0.826-8.693-3.29-9.016
			C27.631,16.662,28.761,19.627,30.536,22.405z M23.479,29.086c-0.866,0.122-1.642,0.23-2.506,0.353
			c0.453,1.012,0.926,1.905,1.256,2.85c0.302,0.863,0.947,1.007,1.784,1.125C23.834,31.972,23.664,30.583,23.479,29.086z"/>
		<g>
			<g>
				<g>
					<g>
						<path fill="#0E75AF" stroke="#FFFFFF" stroke-width="5" stroke-miterlimit="10" d="M45.977,14.219
							c0.521,0.067,0.759,0.281,0.716,0.643c-0.88,4.385-1.496,6.705-1.853,6.959c-0.192,0.229-0.527,0.342-1.007,0.342
							c-0.507,0-0.765-0.221-0.771-0.664c0.11-0.361,0.537-1.803,1.281-4.324c0.302-1.556,0.519-2.434,0.651-2.635
							C45.196,14.327,45.523,14.219,45.977,14.219z M49.032,10.438c0.641,0,0.919,0.215,0.836,0.643l-3.495,17.983
							c-0.097,0.496-0.47,0.764-1.118,0.804c-0.686-0.04-0.987-0.269-0.906-0.685l3.519-18.103
							C47.95,10.652,48.339,10.438,49.032,10.438z M49.626,19.529h4.46c0.127-0.375,0.229-0.764,0.307-1.167l0.571-2.936h-2.82
							c-0.547,0-0.753-0.349-0.617-1.047c0.1-0.509,0.364-0.845,0.796-1.006h3.04l0.431-2.212c0.153-0.442,0.529-0.663,1.13-0.663
							c0.693,0,1.007,0.235,0.943,0.704l-0.423,2.172h3.681c0.672,0.041,0.93,0.47,0.771,1.288l-0.946,4.868h1.18
							c0.323,0.054,0.426,0.383,0.309,0.986c-0.133,0.683-0.386,1.025-0.759,1.025h-5.321c0.149,0.671,0.367,1.268,0.651,1.791
							c0.83,1.77,2.082,3.185,3.757,4.244c0.15,0.254,0.203,0.496,0.159,0.724c-0.206,0.925-0.704,1.388-1.49,1.388
							c-0.107,0-0.262-0.061-0.465-0.181c-0.904-0.496-1.83-1.422-2.781-2.775c-0.488-0.711-1.074-1.952-1.757-3.721
							c-0.571,1.019-1.356,2.072-2.354,3.158c-1.196,1.421-2.396,2.515-3.598,3.278c-0.034,0.175-0.343,0.289-0.927,0.342
							c-0.499-0.107-0.775-0.47-0.829-1.086c0.041-0.215,0.15-0.463,0.325-0.744c3.23-2.695,5.188-4.74,5.873-6.135
							c0.071-0.094,0.143-0.188,0.215-0.282h-3.741c-0.439,0-0.59-0.361-0.449-1.086C49.044,19.945,49.271,19.636,49.626,19.529z
							 M50.266,14.28c0.344,0.013,0.569,0.16,0.675,0.442c0.125,0.657,0.114,1.844-0.032,3.56c-0.078,0.403-0.196,0.638-0.357,0.704
							c-0.198,0.134-0.525,0.201-0.979,0.201c-0.334,0-0.475-0.201-0.423-0.603c0.096-1.314,0.13-2.313,0.103-2.998
							c0.003-0.361,0.024-0.636,0.061-0.824C49.574,14.439,49.893,14.28,50.266,14.28z M57.045,15.426l-0.566,2.916
							c-0.079,0.402-0.129,0.797-0.151,1.187h2.7l0.724-3.721c0.036-0.188-0.052-0.314-0.266-0.381H57.045z"/>
						<path fill="#0E75AF" stroke="#FFFFFF" stroke-width="5" stroke-miterlimit="10" d="M68.406,29.324h-4.221
							c-0.771-0.014-1.103-0.435-0.994-1.268l0.938-4.827c0.154-0.791,0.637-1.213,1.447-1.267h4.401
							c0.772,0.067,1.074,0.542,0.901,1.428l-0.883,4.546C69.816,28.862,69.287,29.324,68.406,29.324z M65.587,19.126h5.421
							c0.38,0.107,0.516,0.436,0.409,0.985c-0.13,0.671-0.429,1.006-0.896,1.006H65.32c-0.453,0-0.617-0.355-0.493-1.067
							C64.924,19.556,65.177,19.247,65.587,19.126z M65.667,13.676h7.381c0.388,0.134,0.525,0.49,0.413,1.066
							c-0.133,0.685-0.446,1.026-0.939,1.026H65.38c-0.453,0-0.622-0.368-0.505-1.106C64.977,14.139,65.241,13.81,65.667,13.676z
							 M66.02,16.392h5.521c0.377,0.121,0.513,0.449,0.409,0.985c-0.131,0.67-0.43,1.005-0.896,1.005h-5.281
							c-0.453,0-0.617-0.355-0.492-1.066C65.375,16.821,65.622,16.512,66.02,16.392z M66.466,24.075
							c-0.228,0-0.399,0.134-0.519,0.403l-0.453,2.333c-0.025,0.268,0.129,0.402,0.462,0.402h1.62
							c0.325-0.027,0.516-0.181,0.57-0.462l0.43-2.213c0.061-0.309-0.063-0.463-0.37-0.463H66.466z M67.251,10.98h5.222
							c0.359,0.134,0.487,0.477,0.381,1.027c-0.128,0.656-0.42,0.985-0.873,0.985h-5.001c-0.453,0-0.616-0.362-0.489-1.086
							C66.585,11.423,66.838,11.114,67.251,10.98z M74.444,11.02h6.562c0.891,0.148,1.229,0.785,1.009,1.912
							c-0.575,3.097-1.146,6.107-1.715,9.031c-0.35,1.796-0.519,3.245-0.505,4.344c0.213,0,0.55-1.18,1.009-3.54
							c0.188-0.282,0.51-0.435,0.97-0.462c0.581,0.027,0.837,0.22,0.767,0.583c-0.897,4.613-1.999,6.919-3.306,6.919
							c-1.654,0-1.928-2.91-0.823-8.729c0.283-1.596,0.716-4.03,1.299-7.302c0.081-0.415-0.029-0.637-0.331-0.664h-1.82
							l-1.103,5.672h1.399c0.398,0.147,0.541,0.516,0.426,1.106c-0.141,0.724-0.465,1.086-0.971,1.086h-1.28
							c-0.736,3.581-2.046,6.402-3.927,8.467c-0.343,0.255-0.688,0.383-1.035,0.383c-0.568-0.094-0.85-0.503-0.841-1.227
							c0.028-0.148,0.11-0.329,0.245-0.544c1.694-1.783,2.854-4.143,3.477-7.079h-1.58c-0.48,0-0.658-0.389-0.533-1.167
							c0.104-0.537,0.391-0.878,0.859-1.026h1.7l1.103-5.672h-1.421c-0.567-0.027-0.783-0.389-0.647-1.086
							C73.56,11.356,73.897,11.02,74.444,11.02z"/>
					</g>
				</g>
				<g>
					<path fill="#0E75AF" stroke="#FFFFFF" stroke-width="5" stroke-miterlimit="10" d="M87.989,26.275
						c-0.108,0.433-0.365,0.75-0.771,0.951c-0.43,0.194-0.867,0.236-1.313,0.125c-0.444-0.111-0.813-0.354-1.1-0.729
						c-0.263-0.368-0.34-0.77-0.231-1.202c0.111-0.445,0.371-0.775,0.779-0.988c0.43-0.194,0.869-0.236,1.313-0.125
						c0.445,0.111,0.813,0.354,1.1,0.729C88.026,25.417,88.101,25.83,87.989,26.275z M90.213,15.572l-2.237,6.973
						c-0.137,0.439-0.489,0.588-1.059,0.445c-0.495-0.124-0.699-0.405-0.616-0.844l1.342-7.178c0.232-1.191,0.805-1.672,1.721-1.443
						C90.291,13.758,90.575,14.439,90.213,15.572z"/>
				</g>
				<g>
					<path fill="#0E75AF" stroke="#FFFFFF" stroke-width="5" stroke-miterlimit="10" d="M98.934,26.275
						c-0.108,0.433-0.365,0.75-0.771,0.951c-0.43,0.194-0.867,0.236-1.313,0.125s-0.813-0.354-1.1-0.729
						c-0.263-0.368-0.34-0.769-0.231-1.202c0.111-0.445,0.371-0.774,0.779-0.987c0.43-0.195,0.868-0.237,1.313-0.125
						s0.812,0.354,1.099,0.729C98.971,25.417,99.045,25.83,98.934,26.275z M101.156,15.572l-2.236,6.974
						c-0.138,0.438-0.489,0.587-1.059,0.444c-0.495-0.123-0.699-0.405-0.617-0.844l1.343-7.178c0.232-1.191,0.806-1.672,1.722-1.443
						C101.236,13.758,101.52,14.44,101.156,15.572z"/>
				</g>
				<g>
					<path fill="#0E75AF" stroke="#FFFFFF" stroke-width="5" stroke-miterlimit="10" d="M93.671,26.274
						c-0.108,0.433-0.365,0.75-0.771,0.951c-0.431,0.194-0.867,0.236-1.313,0.125s-0.813-0.354-1.101-0.729
						c-0.263-0.368-0.339-0.769-0.23-1.202c0.111-0.445,0.37-0.775,0.778-0.988c0.43-0.195,0.868-0.237,1.313-0.125
						s0.812,0.354,1.1,0.729C93.708,25.417,93.782,25.829,93.671,26.274z M95.894,15.571l-2.236,6.974
						c-0.137,0.438-0.489,0.587-1.059,0.444c-0.494-0.124-0.7-0.405-0.616-0.844l1.342-7.177c0.232-1.191,0.806-1.672,1.722-1.442
						C95.973,13.757,96.257,14.439,95.894,15.571z"/>
				</g>
			</g>
		</g>
		<path fill-rule="evenodd" clip-rule="evenodd" fill="#0E75AF" d="M25.702,28.855c0.207,1.72,0.401,3.344,0.597,4.967
			c0.053,0.417,0.126,0.832,0.156,1.25c0.065,0.938-0.605,1.459-1.498,1.163c-1.077-0.358-2.144-0.746-3.223-1.095
			c-0.521-0.167-0.847-0.489-1.073-0.98c-0.584-1.281-1.215-2.54-1.798-3.82c-0.17-0.372-0.354-0.484-0.767-0.394
			c-1.107,0.243-2.218,0.519-3.341,0.614c-0.676,0.056-1.425-0.084-2.061-0.34c-1.076-0.436-1.854-1.303-2.488-2.257
			c-1.42-2.132-2.263-4.466-2.133-7.055c0.038-0.798,0.279-1.611,0.563-2.366c0.285-0.75,0.913-1.219,1.674-1.527
			c5.893-2.376,11.066-5.812,15.423-10.459c0.185-0.199,0.359-0.412,0.511-0.637c1.284-1.907,3.208-2.57,5.388-1.833
			c1.262,0.425,2.318,1.183,3.259,2.102c2.754,2.692,4.386,6.033,5.452,9.666c0.831,2.828,1.204,5.715,0.536,8.648
			c-0.272,1.185-0.77,2.267-1.619,3.161c-1.034,1.091-2.295,1.38-3.783,1.254c-2.045-0.173-4.104-0.21-6.161-0.236
			C28.145,28.666,26.973,28.789,25.702,28.855z M24.888,10.506c-0.242,0.192-0.354,0.277-0.46,0.37
			c-3.965,3.454-8.36,6.208-13.248,8.16c-0.522,0.207-0.729,0.584-0.847,1.077c-0.582,2.448,0.872,6.475,2.929,7.923
			c0.352,0.248,0.923,0.407,1.329,0.315c5.187-1.178,10.437-1.763,15.752-1.826c0.146-0.001,0.297-0.043,0.538-0.081
			c-2.072-2.183-3.497-4.647-4.519-7.341C25.331,16.389,24.862,13.559,24.888,10.506z M27.111,11.051
			c1.799,0.156,2.915,1.198,3.846,2.503c0.946,1.331,1.661,2.784,2.017,4.379c0.492,2.192,0.601,4.346-1.134,6.305
			c0.822,0.664,1.577,1.411,2.456,1.954c1.822,1.126,3.282,0.591,4.06-1.402c0.552-1.416,0.686-2.908,0.561-4.404
			c-0.357-4.166-1.851-7.909-4.356-11.242c-0.878-1.166-1.916-2.181-3.268-2.807c-1.419-0.654-2.545-0.293-3.308,1.062
			C27.359,8.506,27.248,9.736,27.111,11.051z M30.536,22.405c1.507-2.209-0.826-8.693-3.29-9.016
			C27.631,16.662,28.761,19.627,30.536,22.405z M23.479,29.086c-0.866,0.122-1.642,0.23-2.506,0.353
			c0.453,1.012,0.926,1.905,1.256,2.85c0.302,0.863,0.947,1.007,1.784,1.125C23.834,31.972,23.664,30.583,23.479,29.086z"/>
		<g>
			<g>
				<g>
					<g>
						<path fill="#0E75AF" d="M45.977,14.219c0.521,0.067,0.759,0.281,0.716,0.643c-0.88,4.385-1.496,6.705-1.853,6.959
							c-0.192,0.229-0.527,0.342-1.007,0.342c-0.507,0-0.765-0.221-0.771-0.664c0.11-0.361,0.537-1.803,1.281-4.324
							c0.302-1.556,0.519-2.434,0.651-2.635C45.196,14.327,45.523,14.219,45.977,14.219z M49.032,10.438
							c0.641,0,0.919,0.215,0.836,0.643l-3.495,17.983c-0.097,0.496-0.47,0.764-1.118,0.804c-0.686-0.04-0.987-0.269-0.906-0.685
							l3.519-18.103C47.95,10.652,48.339,10.438,49.032,10.438z M49.626,19.529h4.46c0.127-0.375,0.229-0.764,0.307-1.167
							l0.571-2.936h-2.82c-0.547,0-0.753-0.349-0.617-1.047c0.1-0.509,0.364-0.845,0.796-1.006h3.04l0.431-2.212
							c0.153-0.442,0.529-0.663,1.13-0.663c0.693,0,1.007,0.235,0.943,0.704l-0.423,2.172h3.681c0.672,0.041,0.93,0.47,0.771,1.288
							l-0.946,4.868h1.18c0.323,0.054,0.426,0.383,0.309,0.986c-0.133,0.683-0.386,1.025-0.759,1.025h-5.321
							c0.149,0.671,0.367,1.268,0.651,1.791c0.83,1.77,2.082,3.185,3.757,4.244c0.15,0.254,0.203,0.496,0.159,0.724
							c-0.206,0.925-0.704,1.388-1.49,1.388c-0.107,0-0.262-0.061-0.465-0.181c-0.904-0.496-1.83-1.422-2.781-2.775
							c-0.488-0.711-1.074-1.952-1.757-3.721c-0.571,1.019-1.356,2.072-2.354,3.158c-1.196,1.421-2.396,2.515-3.598,3.278
							c-0.034,0.175-0.343,0.289-0.927,0.342c-0.499-0.107-0.775-0.47-0.829-1.086c0.041-0.215,0.15-0.463,0.325-0.744
							c3.23-2.695,5.188-4.74,5.873-6.135c0.071-0.094,0.143-0.188,0.215-0.282h-3.741c-0.439,0-0.59-0.361-0.449-1.086
							C49.044,19.945,49.271,19.636,49.626,19.529z M50.266,14.28c0.344,0.013,0.569,0.16,0.675,0.442
							c0.125,0.657,0.114,1.844-0.032,3.56c-0.078,0.403-0.196,0.638-0.357,0.704c-0.198,0.134-0.525,0.201-0.979,0.201
							c-0.334,0-0.475-0.201-0.423-0.603c0.096-1.314,0.13-2.313,0.103-2.998c0.003-0.361,0.024-0.636,0.061-0.824
							C49.574,14.439,49.893,14.28,50.266,14.28z M57.045,15.426l-0.566,2.916c-0.079,0.402-0.129,0.797-0.151,1.187h2.7
							l0.724-3.721c0.036-0.188-0.052-0.314-0.266-0.381H57.045z"/>
						<path fill="#0E75AF" d="M68.406,29.324h-4.221c-0.771-0.014-1.103-0.435-0.994-1.268l0.938-4.827
							c0.154-0.791,0.637-1.213,1.447-1.267h4.401c0.772,0.067,1.074,0.542,0.901,1.428l-0.883,4.546
							C69.816,28.862,69.287,29.324,68.406,29.324z M65.587,19.126h5.421c0.38,0.107,0.516,0.436,0.409,0.985
							c-0.13,0.671-0.429,1.006-0.896,1.006H65.32c-0.453,0-0.617-0.355-0.493-1.067C64.924,19.556,65.177,19.247,65.587,19.126z
							 M65.667,13.676h7.381c0.388,0.134,0.525,0.49,0.413,1.066c-0.133,0.685-0.446,1.026-0.939,1.026H65.38
							c-0.453,0-0.622-0.368-0.505-1.106C64.977,14.139,65.241,13.81,65.667,13.676z M66.02,16.392h5.521
							c0.377,0.121,0.513,0.449,0.409,0.985c-0.131,0.67-0.43,1.005-0.896,1.005h-5.281c-0.453,0-0.617-0.355-0.492-1.066
							C65.375,16.821,65.622,16.512,66.02,16.392z M66.466,24.075c-0.228,0-0.399,0.134-0.519,0.403l-0.453,2.333
							c-0.025,0.268,0.129,0.402,0.462,0.402h1.62c0.325-0.027,0.516-0.181,0.57-0.462l0.43-2.213
							c0.061-0.309-0.063-0.463-0.37-0.463H66.466z M67.251,10.98h5.222c0.359,0.134,0.487,0.477,0.381,1.027
							c-0.128,0.656-0.42,0.985-0.873,0.985h-5.001c-0.453,0-0.616-0.362-0.489-1.086C66.585,11.423,66.838,11.114,67.251,10.98z
							 M74.444,11.02h6.562c0.891,0.148,1.229,0.785,1.009,1.912c-0.575,3.097-1.146,6.107-1.715,9.031
							c-0.35,1.796-0.519,3.245-0.505,4.344c0.213,0,0.55-1.18,1.009-3.54c0.188-0.282,0.51-0.435,0.97-0.462
							c0.581,0.027,0.837,0.22,0.767,0.583c-0.897,4.613-1.999,6.919-3.306,6.919c-1.654,0-1.928-2.91-0.823-8.729
							c0.283-1.596,0.716-4.03,1.299-7.302c0.081-0.415-0.029-0.637-0.331-0.664h-1.82l-1.103,5.672h1.399
							c0.398,0.147,0.541,0.516,0.426,1.106c-0.141,0.724-0.465,1.086-0.971,1.086h-1.28c-0.736,3.581-2.046,6.402-3.927,8.467
							c-0.343,0.255-0.688,0.383-1.035,0.383c-0.568-0.094-0.85-0.503-0.841-1.227c0.028-0.148,0.11-0.329,0.245-0.544
							c1.694-1.783,2.854-4.143,3.477-7.079h-1.58c-0.48,0-0.658-0.389-0.533-1.167c0.104-0.537,0.391-0.878,0.859-1.026h1.7
							l1.103-5.672h-1.421c-0.567-0.027-0.783-0.389-0.647-1.086C73.56,11.356,73.897,11.02,74.444,11.02z"/>
					</g>
				</g>
				<g>
					<path fill="#0E75AF" d="M87.989,26.275c-0.108,0.433-0.365,0.75-0.771,0.951c-0.43,0.194-0.867,0.236-1.313,0.125
						c-0.444-0.111-0.813-0.354-1.1-0.729c-0.263-0.368-0.34-0.77-0.231-1.202c0.111-0.445,0.371-0.775,0.779-0.988
						c0.43-0.194,0.869-0.236,1.313-0.125c0.445,0.111,0.813,0.354,1.1,0.729C88.026,25.417,88.101,25.83,87.989,26.275z
						 M90.213,15.572l-2.237,6.973c-0.137,0.439-0.489,0.588-1.059,0.445c-0.495-0.124-0.699-0.405-0.616-0.844l1.342-7.178
						c0.232-1.191,0.805-1.672,1.721-1.443C90.291,13.758,90.575,14.439,90.213,15.572z"/>
				</g>
				<g>
					<path fill="#0E75AF" d="M98.934,26.275c-0.108,0.433-0.365,0.75-0.771,0.951c-0.43,0.194-0.867,0.236-1.313,0.125
						s-0.813-0.354-1.1-0.729c-0.263-0.368-0.34-0.769-0.231-1.202c0.111-0.445,0.371-0.774,0.779-0.987
						c0.43-0.195,0.868-0.237,1.313-0.125s0.812,0.354,1.099,0.729C98.971,25.417,99.045,25.83,98.934,26.275z M101.156,15.572
						l-2.236,6.974c-0.138,0.438-0.489,0.587-1.059,0.444c-0.495-0.123-0.699-0.405-0.617-0.844l1.343-7.178
						c0.232-1.191,0.806-1.672,1.722-1.443C101.236,13.758,101.52,14.44,101.156,15.572z"/>
				</g>
				<g>
					<path fill="#0E75AF" d="M93.671,26.274c-0.108,0.433-0.365,0.75-0.771,0.951c-0.431,0.194-0.867,0.236-1.313,0.125
						s-0.813-0.354-1.101-0.729c-0.263-0.368-0.339-0.769-0.23-1.202c0.111-0.445,0.37-0.775,0.778-0.988
						c0.43-0.195,0.868-0.237,1.313-0.125s0.812,0.354,1.1,0.729C93.708,25.417,93.782,25.829,93.671,26.274z M95.894,15.571
						l-2.236,6.974c-0.137,0.438-0.489,0.587-1.059,0.444c-0.494-0.124-0.7-0.405-0.616-0.844l1.342-7.177
						c0.232-1.191,0.806-1.672,1.722-1.442C95.973,13.757,96.257,14.439,95.894,15.571z"/>
				</g>
			</g>
		</g>
	</g>
</g>
<g id="圖層_2">
</g>
</svg>
