<?xml version="1.0" encoding="utf-8"?>
<!-- Generator: Adobe Illustrator 16.0.0, SVG Export Plug-In . SVG Version: 6.00 Build 0)  -->
<!DOCTYPE svg PUBLIC "-//W3C//DTD SVG 1.1//EN" "http://www.w3.org/Graphics/SVG/1.1/DTD/svg11.dtd">
<svg version="1.1" xmlns="http://www.w3.org/2000/svg" xmlns:xlink="http://www.w3.org/1999/xlink" x="0px" y="0px"
	 width="184.119px" height="89.206px" viewBox="0 0 184.119 89.206" enable-background="new 0 0 184.119 89.206"
	 xml:space="preserve">
<g id="圖層_1">
	<path fill="#FFFFFF" d="M182.619,11.5c0-5.523-4.689-10-10.475-10H11.975C6.189,1.5,1.5,5.977,1.5,11.5v66.206
		c0,5.523,4.689,10,10.475,10h160.17c5.785,0,10.475-4.477,10.475-10V11.5z"/>
	<path fill="none" stroke="#0E75AF" stroke-width="3" stroke-miterlimit="10" d="M182.619,11.5c0-5.523-4.689-10-10.475-10H11.975
		C6.189,1.5,1.5,5.977,1.5,11.5v66.206c0,5.523,4.689,10,10.475,10h160.17c5.785,0,10.475-4.477,10.475-10V11.5z"/>
	<g>
		<g>
			<path fill="#0E75AF" d="M12.691,38.545c0.574,0.072,0.877,0.303,0.906,0.693c-0.029,4.723-0.209,7.222-0.539,7.497
				c-0.158,0.246-0.496,0.368-1.014,0.368c-0.545,0-0.869-0.238-0.969-0.715c0.043-0.39,0.201-1.943,0.473-4.658
				c0-1.676,0.051-2.622,0.152-2.838C11.873,38.661,12.203,38.545,12.691,38.545z M15.191,34.472c0.689,0,1.033,0.231,1.033,0.693
				v19.37c0,0.534-0.344,0.823-1.033,0.867c-0.748-0.043-1.121-0.29-1.121-0.737v-19.5C14.07,34.703,14.443,34.472,15.191,34.472z
				 M17.324,38.61c0.373,0.015,0.646,0.173,0.818,0.477c0.273,0.708,0.51,1.986,0.711,3.835c0,0.434-0.078,0.686-0.236,0.758
				c-0.188,0.145-0.525,0.217-1.012,0.217c-0.359,0-0.555-0.217-0.582-0.65c-0.174-1.416-0.346-2.492-0.518-3.229
				c-0.072-0.39-0.107-0.686-0.107-0.888C16.613,38.784,16.922,38.61,17.324,38.61z M17.734,44.265h4.805
				c0.057-0.404,0.086-0.823,0.086-1.256v-3.164h-3.037c-0.59,0-0.885-0.375-0.885-1.126c0-0.549,0.217-0.91,0.646-1.083h3.275
				v-2.383c0.072-0.477,0.432-0.715,1.078-0.715c0.746,0,1.135,0.253,1.162,0.758v2.34h3.965c0.732,0.043,1.1,0.506,1.1,1.387v5.243
				h1.271c0.359,0.058,0.539,0.412,0.539,1.062c0,0.737-0.201,1.105-0.604,1.105h-5.732c0.303,0.723,0.66,1.365,1.078,1.929
				c1.264,1.906,2.908,3.43,4.934,4.571c0.217,0.274,0.324,0.534,0.324,0.78c-0.029,0.997-0.467,1.495-1.314,1.495
				c-0.115,0-0.295-0.065-0.539-0.195c-1.078-0.535-2.27-1.531-3.576-2.99c-0.676-0.765-1.566-2.102-2.672-4.008
				c-0.402,1.098-1.027,2.231-1.875,3.401c-0.992,1.531-2.055,2.708-3.189,3.532c0,0.188-0.309,0.31-0.926,0.368
				c-0.561-0.116-0.936-0.506-1.121-1.17c0-0.231,0.064-0.499,0.193-0.802c2.916-2.903,4.598-5.105,5.043-6.608
				c0.057-0.101,0.115-0.202,0.172-0.304h-4.029c-0.475,0-0.711-0.39-0.711-1.17C17.195,44.713,17.375,44.381,17.734,44.265z
				 M24.865,39.845v3.142c0,0.434,0.029,0.86,0.088,1.278h2.908v-4.008c0-0.202-0.123-0.339-0.367-0.412H24.865z"/>
			<path fill="#0E75AF" d="M33.787,37.96h7.951c0.445,0.145,0.668,0.527,0.668,1.148c0,0.736-0.268,1.105-0.799,1.105h-7.691
				c-0.488,0-0.748-0.397-0.775-1.192C33.141,38.458,33.355,38.105,33.787,37.96z M34.734,40.885h5.947
				c0.432,0.13,0.646,0.484,0.646,1.062c0,0.723-0.252,1.083-0.754,1.083h-5.689c-0.488,0-0.74-0.382-0.754-1.148
				C34.131,41.348,34.332,41.015,34.734,40.885z M40.014,54.816h-4.547c-0.832-0.014-1.277-0.469-1.336-1.365v-5.2
				c0-0.852,0.432-1.307,1.293-1.365h4.74c0.848,0.073,1.271,0.585,1.271,1.539v4.896C41.436,54.318,40.961,54.816,40.014,54.816z
				 M34.842,43.832h5.84c0.432,0.116,0.646,0.469,0.646,1.062c0,0.723-0.252,1.083-0.754,1.083h-5.604
				c-0.488,0-0.738-0.383-0.754-1.148C34.217,44.294,34.426,43.962,34.842,43.832z M34.928,35.057h5.625
				c0.416,0.145,0.625,0.513,0.625,1.105c0,0.708-0.244,1.062-0.732,1.062h-5.387c-0.488,0-0.74-0.39-0.756-1.17
				C34.303,35.534,34.512,35.202,34.928,35.057z M36.824,49.162c-0.244,0-0.402,0.145-0.473,0.434v2.513
				c0.027,0.289,0.223,0.433,0.58,0.433h1.746c0.346-0.029,0.518-0.195,0.518-0.498V49.66c0-0.332-0.166-0.499-0.496-0.499H36.824z
				 M42.686,35.101h7.068c0.99,0.159,1.486,0.845,1.486,2.058c0.029,3.336,0.043,6.58,0.043,9.728c0,1.936,0.121,3.496,0.365,4.68
				c0.23,0,0.346-1.271,0.346-3.813c0.143-0.303,0.459-0.469,0.947-0.498c0.633,0.029,0.949,0.238,0.949,0.628
				c0,4.969-0.705,7.453-2.111,7.453c-1.781,0-2.688-3.134-2.715-9.403c-0.029-1.719-0.072-4.34-0.131-7.865
				c0-0.448-0.164-0.686-0.494-0.715h-1.961v6.11h1.508c0.459,0.159,0.689,0.557,0.689,1.192c0,0.78-0.273,1.17-0.818,1.17h-1.379
				c-0.043,3.856-0.863,6.897-2.457,9.122c-0.316,0.274-0.66,0.412-1.033,0.412c-0.633-0.102-1.021-0.542-1.164-1.322
				c0-0.159,0.049-0.354,0.15-0.585c1.451-1.921,2.205-4.463,2.262-7.626h-1.701c-0.518,0-0.791-0.419-0.818-1.257
				c0-0.577,0.236-0.946,0.711-1.105h1.83v-6.11h-1.529c-0.617-0.029-0.926-0.418-0.926-1.17
				C41.803,35.461,42.096,35.101,42.686,35.101z"/>
		</g>
	</g>
	<path fill="#0E75AF" d="M61.751,64.843c0,0.734-0.596,1.329-1.33,1.329l0,0c-0.734,0-1.329-0.595-1.329-1.329V20.838
		c0-0.734,0.595-1.33,1.329-1.33l0,0c0.734,0,1.33,0.595,1.33,1.33V64.843z"/>
</g>
<g id="圖層_2">
</g>
</svg>
